<?xml version="1.0" encoding="UTF-8" standalone="no"?>
<!DOCTYPE svg PUBLIC "-//W3C//DTD SVG 1.1//EN"
 "http://www.w3.org/Graphics/SVG/1.1/DTD/svg11.dtd">
<!-- Generated by graphviz version 2.44.0 (0)
 -->
<!-- Title: G Pages: 1 -->
<svg width="1183pt" height="808pt"
 viewBox="0.00 0.00 1182.82 808.18" xmlns="http://www.w3.org/2000/svg" xmlns:xlink="http://www.w3.org/1999/xlink">
<g id="graph0" class="graph" transform="scale(1 1) rotate(0) translate(4 804.18)">
<title>G</title><style>.edge>path:hover{stroke-width:8}</style>
<polygon fill="white" stroke="transparent" points="-4,4 -4,-804.18 1178.82,-804.18 1178.82,4 -4,4"/>
<!-- mejiro_analysis -->
<g id="node1" class="node">
<title>mejiro_analysis</title><style>.edge>path:hover{stroke-width:8}</style>
<ellipse fill="#c24747" stroke="black" cx="698.3" cy="-178.07" rx="36.54" ry="21.43"/>
<text text-anchor="middle" x="698.3" y="-181.07" font-family="Helvetica" font-size="10.00" fill="#ffffff">mejiro.</text>
<text text-anchor="middle" x="698.3" y="-170.07" font-family="Helvetica" font-size="10.00" fill="#ffffff">analysis</text>
</g>
<!-- mejiro_exposure -->
<g id="node14" class="node">
<title>mejiro_exposure</title><style>.edge>path:hover{stroke-width:8}</style>
<ellipse fill="#713c3c" stroke="black" cx="645.3" cy="-99.64" rx="39.7" ry="21.43"/>
<text text-anchor="middle" x="645.3" y="-102.64" font-family="Helvetica" font-size="10.00" fill="#ffffff">mejiro.</text>
<text text-anchor="middle" x="645.3" y="-91.64" font-family="Helvetica" font-size="10.00" fill="#ffffff">exposure</text>
</g>
<!-- mejiro_analysis&#45;&gt;mejiro_exposure -->
<g id="edge1" class="edge">
<title>mejiro_analysis&#45;&gt;mejiro_exposure</title><style>.edge>path:hover{stroke-width:8}</style>
<path fill="none" stroke="black" d="M685.19,-158.17C678.94,-149.15 671.32,-138.17 664.43,-128.23"/>
<polygon fill="#c24747" stroke="black" points="667.19,-126.07 658.61,-119.85 661.44,-130.06 667.19,-126.07"/>
</g>
<!-- mejiro_strong_lens -->
<g id="node23" class="node">
<title>mejiro_strong_lens</title><style>.edge>path:hover{stroke-width:8}</style>
<ellipse fill="#964040" stroke="black" cx="772.3" cy="-99.64" rx="47.25" ry="21.43"/>
<text text-anchor="middle" x="772.3" y="-102.64" font-family="Helvetica" font-size="10.00" fill="#ffffff">mejiro.</text>
<text text-anchor="middle" x="772.3" y="-91.64" font-family="Helvetica" font-size="10.00" fill="#ffffff">strong_lens</text>
</g>
<!-- mejiro_analysis&#45;&gt;mejiro_strong_lens -->
<g id="edge2" class="edge">
<title>mejiro_analysis&#45;&gt;mejiro_strong_lens</title><style>.edge>path:hover{stroke-width:8}</style>
<path fill="none" stroke="black" d="M715.83,-158.95C725.12,-149.36 736.69,-137.41 746.94,-126.83"/>
<polygon fill="#c24747" stroke="black" points="749.67,-129.04 754.11,-119.42 744.64,-124.17 749.67,-129.04"/>
</g>
<!-- mejiro_analysis_lensing -->
<g id="node2" class="node">
<title>mejiro_analysis_lensing</title><style>.edge>path:hover{stroke-width:8}</style>
<ellipse fill="#995252" stroke="black" cx="880.3" cy="-583.22" rx="38.78" ry="28.98"/>
<text text-anchor="middle" x="880.3" y="-591.72" font-family="Helvetica" font-size="10.00" fill="#ffffff">mejiro.</text>
<text text-anchor="middle" x="880.3" y="-580.72" font-family="Helvetica" font-size="10.00" fill="#ffffff">analysis.</text>
<text text-anchor="middle" x="880.3" y="-569.72" font-family="Helvetica" font-size="10.00" fill="#ffffff">lensing</text>
</g>
<!-- mejiro_analysis_regions -->
<g id="node3" class="node">
<title>mejiro_analysis_regions</title><style>.edge>path:hover{stroke-width:8}</style>
<ellipse fill="#b65353" stroke="black" cx="818.3" cy="-264.27" rx="38.78" ry="28.98"/>
<text text-anchor="middle" x="818.3" y="-272.77" font-family="Helvetica" font-size="10.00" fill="#ffffff">mejiro.</text>
<text text-anchor="middle" x="818.3" y="-261.77" font-family="Helvetica" font-size="10.00" fill="#ffffff">analysis.</text>
<text text-anchor="middle" x="818.3" y="-250.77" font-family="Helvetica" font-size="10.00" fill="#ffffff">regions</text>
</g>
<!-- mejiro_analysis_regions&#45;&gt;mejiro_strong_lens -->
<g id="edge3" class="edge">
<title>mejiro_analysis_regions&#45;&gt;mejiro_strong_lens</title><style>.edge>path:hover{stroke-width:8}</style>
<path fill="none" stroke="black" d="M797.18,-239.69C785.09,-223.74 772.3,-201.55 772.3,-179.07"/>
</g>
<!-- mejiro_analysis_snr_calculation -->
<g id="node4" class="node">
<title>mejiro_analysis_snr_calculation</title><style>.edge>path:hover{stroke-width:8}</style>
<ellipse fill="#b65353" stroke="black" cx="577.3" cy="-264.27" rx="57.97" ry="28.98"/>
<text text-anchor="middle" x="577.3" y="-272.77" font-family="Helvetica" font-size="10.00" fill="#ffffff">mejiro.</text>
<text text-anchor="middle" x="577.3" y="-261.77" font-family="Helvetica" font-size="10.00" fill="#ffffff">analysis.</text>
<text text-anchor="middle" x="577.3" y="-250.77" font-family="Helvetica" font-size="10.00" fill="#ffffff">snr_calculation</text>
</g>
<!-- mejiro_analysis_snr_calculation&#45;&gt;mejiro_exposure -->
<g id="edge4" class="edge">
<title>mejiro_analysis_snr_calculation&#45;&gt;mejiro_exposure</title><style>.edge>path:hover{stroke-width:8}</style>
<path fill="none" stroke="black" d="M567.97,-235.25C563.69,-216.54 562.41,-192.9 577.3,-179.07"/>
</g>
<!-- mejiro_cosmo -->
<g id="node5" class="node">
<title>mejiro_cosmo</title><style>.edge>path:hover{stroke-width:8}</style>
<ellipse fill="#b65353" stroke="black" cx="844.3" cy="-178.07" rx="44.3" ry="18"/>
<text text-anchor="middle" x="844.3" y="-175.57" font-family="Helvetica" font-size="10.00" fill="#ffffff">mejiro.cosmo</text>
</g>
<!-- mejiro_cosmo&#45;&gt;mejiro_strong_lens -->
<g id="edge5" class="edge">
<title>mejiro_cosmo&#45;&gt;mejiro_strong_lens</title><style>.edge>path:hover{stroke-width:8}</style>
<path fill="none" stroke="black" d="M829.03,-160.86C819.77,-151.03 807.74,-138.26 797.14,-127.01"/>
<polygon fill="#b65353" stroke="black" points="799.49,-124.4 790.08,-119.52 794.39,-129.2 799.49,-124.4"/>
</g>
<!-- mejiro_cosmo_cosmo -->
<g id="node6" class="node">
<title>mejiro_cosmo_cosmo</title><style>.edge>path:hover{stroke-width:8}</style>
<ellipse fill="#b65353" stroke="black" cx="726.3" cy="-264.27" rx="34.8" ry="28.98"/>
<text text-anchor="middle" x="726.3" y="-272.77" font-family="Helvetica" font-size="10.00" fill="#ffffff">mejiro.</text>
<text text-anchor="middle" x="726.3" y="-261.77" font-family="Helvetica" font-size="10.00" fill="#ffffff">cosmo.</text>
<text text-anchor="middle" x="726.3" y="-250.77" font-family="Helvetica" font-size="10.00" fill="#ffffff">cosmo</text>
</g>
<!-- mejiro_cosmo_cosmo&#45;&gt;mejiro_strong_lens -->
<g id="edge6" class="edge">
<title>mejiro_cosmo_cosmo&#45;&gt;mejiro_strong_lens</title><style>.edge>path:hover{stroke-width:8}</style>
<path fill="none" stroke="black" d="M746.61,-240.74C758.93,-224.73 772.3,-202.05 772.3,-179.07"/>
<path fill="none" stroke="black" d="M772.3,-177.07C772.3,-161.95 772.3,-145.14 772.3,-131.15"/>
<polygon fill="#b65353" stroke="black" points="775.8,-131.08 772.3,-121.08 768.8,-131.08 775.8,-131.08"/>
</g>
<!-- mejiro_engines -->
<g id="node7" class="node">
<title>mejiro_engines</title><style>.edge>path:hover{stroke-width:8}</style>
<ellipse fill="#f91010" stroke="black" cx="236.3" cy="-583.22" rx="47.19" ry="18"/>
<text text-anchor="middle" x="236.3" y="-580.72" font-family="Helvetica" font-size="10.00" fill="#ffffff">mejiro.engines</text>
</g>
<!-- mejiro_engines&#45;&gt;mejiro_exposure -->
<g id="edge7" class="edge">
<title>mejiro_engines&#45;&gt;mejiro_exposure</title><style>.edge>path:hover{stroke-width:8}</style>
<path fill="none" stroke="black" d="M236.61,-564.92C236.87,-546.43 237.09,-516.25 236.3,-490.24"/>
</g>
<!-- mejiro_instruments_roman -->
<g id="node19" class="node">
<title>mejiro_instruments_roman</title><style>.edge>path:hover{stroke-width:8}</style>
<ellipse fill="#8a2e2e" stroke="black" cx="315.3" cy="-395.25" rx="50.41" ry="28.98"/>
<text text-anchor="middle" x="315.3" y="-403.75" font-family="Helvetica" font-size="10.00" fill="#ffffff">mejiro.</text>
<text text-anchor="middle" x="315.3" y="-392.75" font-family="Helvetica" font-size="10.00" fill="#ffffff">instruments.</text>
<text text-anchor="middle" x="315.3" y="-381.75" font-family="Helvetica" font-size="10.00" fill="#ffffff">roman</text>
</g>
<!-- mejiro_engines&#45;&gt;mejiro_instruments_roman -->
<g id="edge8" class="edge">
<title>mejiro_engines&#45;&gt;mejiro_instruments_roman</title><style>.edge>path:hover{stroke-width:8}</style>
<path fill="none" stroke="black" d="M260.36,-567.39C282.87,-551.55 313.58,-524.08 317.3,-490.24"/>
<path fill="none" stroke="black" d="M317.3,-488.24C319.21,-470.78 319.11,-451.36 318.38,-434.88"/>
<polygon fill="#f91010" stroke="black" points="321.85,-434.31 317.82,-424.52 314.86,-434.69 321.85,-434.31"/>
</g>
<!-- mejiro_engines_engine -->
<g id="node8" class="node">
<title>mejiro_engines_engine</title><style>.edge>path:hover{stroke-width:8}</style>
<ellipse fill="#e72222" stroke="black" cx="404.3" cy="-677.2" rx="37.45" ry="28.98"/>
<text text-anchor="middle" x="404.3" y="-685.7" font-family="Helvetica" font-size="10.00" fill="#ffffff">mejiro.</text>
<text text-anchor="middle" x="404.3" y="-674.7" font-family="Helvetica" font-size="10.00" fill="#ffffff">engines.</text>
<text text-anchor="middle" x="404.3" y="-663.7" font-family="Helvetica" font-size="10.00" fill="#ffffff">engine</text>
</g>
<!-- mejiro_engines_galsim_engine -->
<g id="node9" class="node">
<title>mejiro_engines_galsim_engine</title><style>.edge>path:hover{stroke-width:8}</style>
<ellipse fill="#813737" stroke="black" cx="445.3" cy="-264.27" rx="55.72" ry="28.98"/>
<text text-anchor="middle" x="445.3" y="-272.77" font-family="Helvetica" font-size="10.00" fill="#ffffff">mejiro.</text>
<text text-anchor="middle" x="445.3" y="-261.77" font-family="Helvetica" font-size="10.00" fill="#ffffff">engines.</text>
<text text-anchor="middle" x="445.3" y="-250.77" font-family="Helvetica" font-size="10.00" fill="#ffffff">galsim_engine</text>
</g>
<!-- mejiro_engines_engine&#45;&gt;mejiro_engines_galsim_engine -->
<g id="edge9" class="edge">
<title>mejiro_engines_engine&#45;&gt;mejiro_engines_galsim_engine</title><style>.edge>path:hover{stroke-width:8}</style>
<path fill="none" stroke="black" d="M431.3,-582.22C425.19,-465.41 577.85,-423.55 507.3,-330.26"/>
<path fill="none" stroke="black" d="M507.3,-329.26C498.54,-318.43 488.27,-307.3 478.64,-297.43"/>
<polygon fill="#e72222" stroke="black" points="480.95,-294.79 471.43,-290.14 475.98,-299.71 480.95,-294.79"/>
</g>
<!-- mejiro_engines_lenstronomy_engine -->
<g id="node10" class="node">
<title>mejiro_engines_lenstronomy_engine</title><style>.edge>path:hover{stroke-width:8}</style>
<ellipse fill="#964040" stroke="black" cx="609.3" cy="-583.22" rx="73.58" ry="28.98"/>
<text text-anchor="middle" x="609.3" y="-591.72" font-family="Helvetica" font-size="10.00" fill="#ffffff">mejiro.</text>
<text text-anchor="middle" x="609.3" y="-580.72" font-family="Helvetica" font-size="10.00" fill="#ffffff">engines.</text>
<text text-anchor="middle" x="609.3" y="-569.72" font-family="Helvetica" font-size="10.00" fill="#ffffff">lenstronomy_engine</text>
</g>
<!-- mejiro_engines_engine&#45;&gt;mejiro_engines_lenstronomy_engine -->
<g id="edge10" class="edge">
<title>mejiro_engines_engine&#45;&gt;mejiro_engines_lenstronomy_engine</title><style>.edge>path:hover{stroke-width:8}</style>
<path fill="none" stroke="black" d="M436.33,-661.83C467.37,-647.9 515.12,-626.48 552.59,-609.66"/>
<polygon fill="#e72222" stroke="black" points="554.19,-612.78 561.88,-605.49 551.32,-606.4 554.19,-612.78"/>
</g>
<!-- mejiro_engines_pandeia_engine -->
<g id="node11" class="node">
<title>mejiro_engines_pandeia_engine</title><style>.edge>path:hover{stroke-width:8}</style>
<ellipse fill="#8b4b4b" stroke="black" cx="248.3" cy="-264.27" rx="59.29" ry="28.98"/>
<text text-anchor="middle" x="248.3" y="-272.77" font-family="Helvetica" font-size="10.00" fill="#ffffff">mejiro.</text>
<text text-anchor="middle" x="248.3" y="-261.77" font-family="Helvetica" font-size="10.00" fill="#ffffff">engines.</text>
<text text-anchor="middle" x="248.3" y="-250.77" font-family="Helvetica" font-size="10.00" fill="#ffffff">pandeia_engine</text>
</g>
<!-- mejiro_engines_engine&#45;&gt;mejiro_engines_pandeia_engine -->
<g id="edge11" class="edge">
<title>mejiro_engines_engine&#45;&gt;mejiro_engines_pandeia_engine</title><style>.edge>path:hover{stroke-width:8}</style>
<path fill="none" stroke="black" d="M416.16,-649.43C423.15,-631.39 430.73,-606.85 431.3,-584.22"/>
<path fill="none" stroke="black" d="M431.3,-582.22C431.67,-567.19 422.39,-565.37 412.3,-554.23 381.99,-520.79 285.73,-458.45 256.3,-424.24 224.43,-387.22 201.31,-379.07 199.3,-330.26"/>
<path fill="none" stroke="black" d="M199.3,-329.26C198.05,-317.3 203.16,-306.16 210.51,-296.64"/>
<polygon fill="#e72222" stroke="black" points="213.19,-298.88 217.11,-289.03 207.91,-294.29 213.19,-298.88"/>
</g>
<!-- mejiro_engines_romanisim_engine -->
<g id="node12" class="node">
<title>mejiro_engines_romanisim_engine</title><style>.edge>path:hover{stroke-width:8}</style>
<ellipse fill="#964040" stroke="black" cx="104.3" cy="-583.22" rx="67.35" ry="28.98"/>
<text text-anchor="middle" x="104.3" y="-591.72" font-family="Helvetica" font-size="10.00" fill="#ffffff">mejiro.</text>
<text text-anchor="middle" x="104.3" y="-580.72" font-family="Helvetica" font-size="10.00" fill="#ffffff">engines.</text>
<text text-anchor="middle" x="104.3" y="-569.72" font-family="Helvetica" font-size="10.00" fill="#ffffff">romanisim_engine</text>
</g>
<!-- mejiro_engines_engine&#45;&gt;mejiro_engines_romanisim_engine -->
<g id="edge12" class="edge">
<title>mejiro_engines_engine&#45;&gt;mejiro_engines_romanisim_engine</title><style>.edge>path:hover{stroke-width:8}</style>
<path fill="none" stroke="black" d="M369.13,-667.03C324.81,-655.27 246.42,-633.8 180.3,-612.21 174.73,-610.39 168.96,-608.43 163.21,-606.41"/>
<polygon fill="#e72222" stroke="black" points="164.17,-603.03 153.58,-602.98 161.82,-609.63 164.17,-603.03"/>
</g>
<!-- mejiro_engines_stpsf_engine -->
<g id="node13" class="node">
<title>mejiro_engines_stpsf_engine</title><style>.edge>path:hover{stroke-width:8}</style>
<ellipse fill="#8f3d3d" stroke="black" cx="352.3" cy="-583.22" rx="50.82" ry="28.98"/>
<text text-anchor="middle" x="352.3" y="-591.72" font-family="Helvetica" font-size="10.00" fill="#ffffff">mejiro.</text>
<text text-anchor="middle" x="352.3" y="-580.72" font-family="Helvetica" font-size="10.00" fill="#ffffff">engines.</text>
<text text-anchor="middle" x="352.3" y="-569.72" font-family="Helvetica" font-size="10.00" fill="#ffffff">stpsf_engine</text>
</g>
<!-- mejiro_engines_engine&#45;&gt;mejiro_engines_stpsf_engine -->
<g id="edge13" class="edge">
<title>mejiro_engines_engine&#45;&gt;mejiro_engines_stpsf_engine</title><style>.edge>path:hover{stroke-width:8}</style>
<path fill="none" stroke="black" d="M389.53,-650.09C384.25,-640.74 378.19,-630.02 372.52,-620"/>
<polygon fill="#e72222" stroke="black" points="375.42,-618.02 367.46,-611.04 369.33,-621.46 375.42,-618.02"/>
</g>
<!-- mejiro_engines_galsim_engine&#45;&gt;mejiro_exposure -->
<g id="edge14" class="edge">
<title>mejiro_engines_galsim_engine&#45;&gt;mejiro_exposure</title><style>.edge>path:hover{stroke-width:8}</style>
<path fill="none" stroke="black" d="M484.28,-243.36C512.03,-228.05 549.22,-205.16 577.3,-179.07"/>
</g>
<!-- mejiro_engines_lenstronomy_engine&#45;&gt;mejiro_exposure -->
<g id="edge15" class="edge">
<title>mejiro_engines_lenstronomy_engine&#45;&gt;mejiro_exposure</title><style>.edge>path:hover{stroke-width:8}</style>
<path fill="none" stroke="black" d="M662.9,-563.2C672.32,-560.06 682.06,-556.95 691.3,-554.23 803.78,-521.03 938.8,-607.21 947.3,-490.24"/>
<path fill="none" stroke="black" d="M947.3,-488.24C957.88,-342.4 783.71,-398.6 682.3,-293.26 671.87,-282.43 670.94,-278.22 663.3,-265.27"/>
</g>
<!-- mejiro_engines_romanisim_engine&#45;&gt;mejiro_exposure -->
<g id="edge16" class="edge">
<title>mejiro_engines_romanisim_engine&#45;&gt;mejiro_exposure</title><style>.edge>path:hover{stroke-width:8}</style>
<path fill="none" stroke="black" d="M148.92,-561.23C187.48,-541.59 236.97,-512.08 236.3,-490.24"/>
<path fill="none" stroke="black" d="M236.3,-488.24C235.31,-456.25 213.75,-454.49 203.3,-424.24 175.67,-344.28 124.82,-299.16 180.3,-235.28 297.14,-100.73 446.76,-300.38 577.3,-179.07"/>
<path fill="none" stroke="black" d="M577.3,-177.07C593.81,-161.6 610.73,-142.6 623.56,-127.41"/>
<polygon fill="#964040" stroke="black" points="626.52,-129.33 630.24,-119.41 621.14,-124.85 626.52,-129.33"/>
</g>
<!-- mejiro_engines_stpsf_engine&#45;&gt;mejiro_instruments_roman -->
<g id="edge17" class="edge">
<title>mejiro_engines_stpsf_engine&#45;&gt;mejiro_instruments_roman</title><style>.edge>path:hover{stroke-width:8}</style>
<path fill="none" stroke="black" d="M334.76,-555.76C324.8,-537.85 314.76,-513.33 317.3,-490.24"/>
</g>
<!-- mejiro_galaxy_galaxy -->
<g id="node15" class="node">
<title>mejiro_galaxy_galaxy</title><style>.edge>path:hover{stroke-width:8}</style>
<ellipse fill="#9f5656" stroke="black" cx="772.3" cy="-21.21" rx="56.64" ry="21.43"/>
<text text-anchor="middle" x="772.3" y="-24.21" font-family="Helvetica" font-size="10.00" fill="#ffffff">mejiro.</text>
<text text-anchor="middle" x="772.3" y="-13.21" font-family="Helvetica" font-size="10.00" fill="#ffffff">galaxy_galaxy</text>
</g>
<!-- mejiro_instruments -->
<g id="node16" class="node">
<title>mejiro_instruments</title><style>.edge>path:hover{stroke-width:8}</style>
<ellipse fill="#db2f2f" stroke="black" cx="431.3" cy="-395.25" rx="48.17" ry="21.43"/>
<text text-anchor="middle" x="431.3" y="-398.25" font-family="Helvetica" font-size="10.00" fill="#ffffff">mejiro.</text>
<text text-anchor="middle" x="431.3" y="-387.25" font-family="Helvetica" font-size="10.00" fill="#ffffff">instruments</text>
</g>
<!-- mejiro_instruments&#45;&gt;mejiro_engines_galsim_engine -->
<g id="edge18" class="edge">
<title>mejiro_instruments&#45;&gt;mejiro_engines_galsim_engine</title><style>.edge>path:hover{stroke-width:8}</style>
<path fill="none" stroke="black" d="M438.3,-329.26C434.68,-321.2 433.97,-312.01 434.7,-303.17"/>
<polygon fill="#db2f2f" stroke="black" points="438.2,-303.42 436.15,-293.03 431.27,-302.43 438.2,-303.42"/>
</g>
<!-- mejiro_instruments&#45;&gt;mejiro_engines_pandeia_engine -->
<g id="edge19" class="edge">
<title>mejiro_instruments&#45;&gt;mejiro_engines_pandeia_engine</title><style>.edge>path:hover{stroke-width:8}</style>
<path fill="none" stroke="black" d="M438.65,-374.11C442.18,-361.07 444.47,-344.03 438.3,-330.26"/>
<path fill="none" stroke="black" d="M438.3,-329.26C427.65,-305.52 364.61,-287.68 314.03,-276.95"/>
<polygon fill="#db2f2f" stroke="black" points="314.59,-273.49 304.09,-274.9 313.18,-280.35 314.59,-273.49"/>
</g>
<!-- mejiro_instruments_hwo -->
<g id="node17" class="node">
<title>mejiro_instruments_hwo</title><style>.edge>path:hover{stroke-width:8}</style>
<ellipse fill="#964040" stroke="black" cx="585.3" cy="-395.25" rx="50.41" ry="28.98"/>
<text text-anchor="middle" x="585.3" y="-403.75" font-family="Helvetica" font-size="10.00" fill="#ffffff">mejiro.</text>
<text text-anchor="middle" x="585.3" y="-392.75" font-family="Helvetica" font-size="10.00" fill="#ffffff">instruments.</text>
<text text-anchor="middle" x="585.3" y="-381.75" font-family="Helvetica" font-size="10.00" fill="#ffffff">hwo</text>
</g>
<!-- mejiro_instruments_hwo&#45;&gt;mejiro_engines_galsim_engine -->
<g id="edge20" class="edge">
<title>mejiro_instruments_hwo&#45;&gt;mejiro_engines_galsim_engine</title><style>.edge>path:hover{stroke-width:8}</style>
<path fill="none" stroke="black" d="M552.6,-372.89C537.31,-361.63 519.76,-346.75 507.3,-330.26"/>
</g>
<!-- mejiro_instruments_instrument -->
<g id="node18" class="node">
<title>mejiro_instruments_instrument</title><style>.edge>path:hover{stroke-width:8}</style>
<ellipse fill="#c24747" stroke="black" cx="547.3" cy="-489.24" rx="50.41" ry="28.98"/>
<text text-anchor="middle" x="547.3" y="-497.74" font-family="Helvetica" font-size="10.00" fill="#ffffff">mejiro.</text>
<text text-anchor="middle" x="547.3" y="-486.74" font-family="Helvetica" font-size="10.00" fill="#ffffff">instruments.</text>
<text text-anchor="middle" x="547.3" y="-475.74" font-family="Helvetica" font-size="10.00" fill="#ffffff">instrument</text>
</g>
<!-- mejiro_instruments_instrument&#45;&gt;mejiro_instruments_hwo -->
<g id="edge21" class="edge">
<title>mejiro_instruments_instrument&#45;&gt;mejiro_instruments_hwo</title><style>.edge>path:hover{stroke-width:8}</style>
<path fill="none" stroke="black" d="M558.7,-460.64C562.3,-451.92 566.34,-442.14 570.16,-432.9"/>
<polygon fill="#c24747" stroke="black" points="573.45,-434.09 574.03,-423.51 566.98,-431.42 573.45,-434.09"/>
</g>
<!-- mejiro_instruments_instrument&#45;&gt;mejiro_instruments_roman -->
<g id="edge22" class="edge">
<title>mejiro_instruments_instrument&#45;&gt;mejiro_instruments_roman</title><style>.edge>path:hover{stroke-width:8}</style>
<path fill="none" stroke="black" d="M508.61,-470.63C500.32,-467.05 491.56,-463.41 483.3,-460.24 435.65,-442 421.66,-443.22 374.3,-424.24 370.33,-422.66 366.25,-420.93 362.18,-419.14"/>
<polygon fill="#c24747" stroke="black" points="363.31,-415.81 352.76,-414.88 360.43,-422.19 363.31,-415.81"/>
</g>
<!-- mejiro_instruments_roman&#45;&gt;mejiro_engines_galsim_engine -->
<g id="edge23" class="edge">
<title>mejiro_instruments_roman&#45;&gt;mejiro_engines_galsim_engine</title><style>.edge>path:hover{stroke-width:8}</style>
<path fill="none" stroke="black" d="M273.08,-379.33C250.53,-368.57 228.96,-352.11 237.3,-330.26"/>
</g>
<!-- mejiro_instruments_roman&#45;&gt;mejiro_engines_pandeia_engine -->
<g id="edge24" class="edge">
<title>mejiro_instruments_roman&#45;&gt;mejiro_engines_pandeia_engine</title><style>.edge>path:hover{stroke-width:8}</style>
<path fill="none" stroke="black" d="M267.24,-386.82C235.94,-378.9 200.64,-362.78 199.3,-330.26"/>
</g>
<!-- mejiro_plots_diagnostic_plot -->
<g id="node20" class="node">
<title>mejiro_plots_diagnostic_plot</title><style>.edge>path:hover{stroke-width:8}</style>
<ellipse fill="#995252" stroke="black" cx="1033.3" cy="-489.24" rx="57.97" ry="28.98"/>
<text text-anchor="middle" x="1033.3" y="-497.74" font-family="Helvetica" font-size="10.00" fill="#ffffff">mejiro.</text>
<text text-anchor="middle" x="1033.3" y="-486.74" font-family="Helvetica" font-size="10.00" fill="#ffffff">plots.</text>
<text text-anchor="middle" x="1033.3" y="-475.74" font-family="Helvetica" font-size="10.00" fill="#ffffff">diagnostic_plot</text>
</g>
<!-- mejiro_plots_plot -->
<g id="node21" class="node">
<title>mejiro_plots_plot</title><style>.edge>path:hover{stroke-width:8}</style>
<ellipse fill="#995252" stroke="black" cx="1142.3" cy="-489.24" rx="32.55" ry="28.98"/>
<text text-anchor="middle" x="1142.3" y="-497.74" font-family="Helvetica" font-size="10.00" fill="#ffffff">mejiro.</text>
<text text-anchor="middle" x="1142.3" y="-486.74" font-family="Helvetica" font-size="10.00" fill="#ffffff">plots.</text>
<text text-anchor="middle" x="1142.3" y="-475.74" font-family="Helvetica" font-size="10.00" fill="#ffffff">plot</text>
</g>
<!-- mejiro_plots_plot_util -->
<g id="node22" class="node">
<title>mejiro_plots_plot_util</title><style>.edge>path:hover{stroke-width:8}</style>
<ellipse fill="#b03a3a" stroke="black" cx="1033.3" cy="-583.22" rx="35.21" ry="28.98"/>
<text text-anchor="middle" x="1033.3" y="-591.72" font-family="Helvetica" font-size="10.00" fill="#ffffff">mejiro.</text>
<text text-anchor="middle" x="1033.3" y="-580.72" font-family="Helvetica" font-size="10.00" fill="#ffffff">plots.</text>
<text text-anchor="middle" x="1033.3" y="-569.72" font-family="Helvetica" font-size="10.00" fill="#ffffff">plot_util</text>
</g>
<!-- mejiro_plots_plot_util&#45;&gt;mejiro_plots_diagnostic_plot -->
<g id="edge25" class="edge">
<title>mejiro_plots_plot_util&#45;&gt;mejiro_plots_diagnostic_plot</title><style>.edge>path:hover{stroke-width:8}</style>
<path fill="none" stroke="black" d="M1033.3,-554.12C1033.3,-546.08 1033.3,-537.18 1033.3,-528.64"/>
<polygon fill="#b03a3a" stroke="black" points="1036.8,-528.48 1033.3,-518.48 1029.8,-528.48 1036.8,-528.48"/>
</g>
<!-- mejiro_plots_plot_util&#45;&gt;mejiro_plots_plot -->
<g id="edge26" class="edge">
<title>mejiro_plots_plot_util&#45;&gt;mejiro_plots_plot</title><style>.edge>path:hover{stroke-width:8}</style>
<path fill="none" stroke="black" d="M1057.49,-561.8C1073.22,-548.52 1093.91,-531.07 1110.91,-516.72"/>
<polygon fill="#b03a3a" stroke="black" points="1113.54,-519.09 1118.92,-509.96 1109.02,-513.74 1113.54,-519.09"/>
</g>
<!-- mejiro_strong_lens&#45;&gt;mejiro_galaxy_galaxy -->
<g id="edge27" class="edge">
<title>mejiro_strong_lens&#45;&gt;mejiro_galaxy_galaxy</title><style>.edge>path:hover{stroke-width:8}</style>
<path fill="none" stroke="black" d="M772.3,-78.16C772.3,-70.3 772.3,-61.16 772.3,-52.57"/>
<polygon fill="#964040" stroke="black" points="775.8,-52.49 772.3,-42.49 768.8,-52.49 775.8,-52.49"/>
</g>
<!-- mejiro_synthetic_image -->
<g id="node24" class="node">
<title>mejiro_synthetic_image</title><style>.edge>path:hover{stroke-width:8}</style>
<ellipse fill="#995252" stroke="black" cx="762.3" cy="-583.22" rx="61.54" ry="21.43"/>
<text text-anchor="middle" x="762.3" y="-586.22" font-family="Helvetica" font-size="10.00" fill="#ffffff">mejiro.</text>
<text text-anchor="middle" x="762.3" y="-575.22" font-family="Helvetica" font-size="10.00" fill="#ffffff">synthetic_image</text>
</g>
<!-- mejiro_utils -->
<g id="node25" class="node">
<title>mejiro_utils</title><style>.edge>path:hover{stroke-width:8}</style>
<ellipse fill="#f91010" stroke="black" cx="482.3" cy="-771.18" rx="37.85" ry="18"/>
<text text-anchor="middle" x="482.3" y="-768.68" font-family="Helvetica" font-size="10.00" fill="#ffffff">mejiro.utils</text>
</g>
<!-- mejiro_utils&#45;&gt;mejiro_analysis_lensing -->
<g id="edge28" class="edge">
<title>mejiro_utils&#45;&gt;mejiro_analysis_lensing</title><style>.edge>path:hover{stroke-width:8}</style>
<path fill="none" stroke="black" d="M510.11,-758.94C570.15,-734.4 715.94,-673.31 833.3,-612.21 836.2,-610.7 839.18,-609.08 842.15,-607.42"/>
<polygon fill="#f91010" stroke="black" points="844.06,-610.37 851,-602.36 840.58,-604.29 844.06,-610.37"/>
</g>
<!-- mejiro_utils&#45;&gt;mejiro_engines_galsim_engine -->
<g id="edge29" class="edge">
<title>mejiro_utils&#45;&gt;mejiro_engines_galsim_engine</title><style>.edge>path:hover{stroke-width:8}</style>
<path fill="none" stroke="black" d="M663.3,-488.24C685.22,-421.54 697.87,-391.37 663.3,-330.26"/>
<path fill="none" stroke="black" d="M663.3,-329.26C620.68,-273.91 576.63,-315.16 510.3,-293.26 505.46,-291.67 500.49,-289.85 495.55,-287.94"/>
<polygon fill="#f91010" stroke="black" points="496.72,-284.63 486.14,-284.15 494.11,-291.13 496.72,-284.63"/>
</g>
<!-- mejiro_utils&#45;&gt;mejiro_engines_lenstronomy_engine -->
<g id="edge30" class="edge">
<title>mejiro_utils&#45;&gt;mejiro_engines_lenstronomy_engine</title><style>.edge>path:hover{stroke-width:8}</style>
<path fill="none" stroke="black" d="M507.3,-676.2C522.78,-652.62 545.74,-631.2 565.95,-614.96"/>
<polygon fill="#f91010" stroke="black" points="568.12,-617.71 573.83,-608.78 563.8,-612.2 568.12,-617.71"/>
</g>
<!-- mejiro_utils&#45;&gt;mejiro_engines_romanisim_engine -->
<g id="edge31" class="edge">
<title>mejiro_utils&#45;&gt;mejiro_engines_romanisim_engine</title><style>.edge>path:hover{stroke-width:8}</style>
<path fill="none" stroke="black" d="M454.04,-759.13C415.6,-744.01 348.93,-717.49 325.3,-706.19 263.88,-676.86 195.65,-638.22 151.47,-612.37"/>
<polygon fill="#f91010" stroke="black" points="153.09,-609.26 142.69,-607.22 149.55,-615.3 153.09,-609.26"/>
</g>
<!-- mejiro_utils&#45;&gt;mejiro_engines_stpsf_engine -->
<g id="edge32" class="edge">
<title>mejiro_utils&#45;&gt;mejiro_engines_stpsf_engine</title><style>.edge>path:hover{stroke-width:8}</style>
<path fill="none" stroke="black" d="M454.06,-759.04C410.77,-741.04 333.51,-704.89 339.3,-678.2"/>
</g>
<!-- mejiro_utils&#45;&gt;mejiro_exposure -->
<g id="edge33" class="edge">
<title>mejiro_utils&#45;&gt;mejiro_exposure</title><style>.edge>path:hover{stroke-width:8}</style>
<path fill="none" stroke="black" d="M663.3,-329.26C645.95,-306.73 679.95,-288.33 663.3,-265.27"/>
<path fill="none" stroke="black" d="M663.3,-263.27C654.49,-251.08 654.37,-246.44 644.3,-235.28 618.24,-206.43 548.92,-205.63 577.3,-179.07"/>
</g>
<!-- mejiro_utils&#45;&gt;mejiro_instruments_hwo -->
<g id="edge34" class="edge">
<title>mejiro_utils&#45;&gt;mejiro_instruments_hwo</title><style>.edge>path:hover{stroke-width:8}</style>
<path fill="none" stroke="black" d="M507.3,-582.22C516.12,-502.22 638.16,-566.7 663.3,-490.24"/>
<path fill="none" stroke="black" d="M663.3,-488.24C671.89,-462.11 651.12,-438.57 628.86,-421.85"/>
<polygon fill="#f91010" stroke="black" points="630.83,-418.95 620.65,-416.01 626.77,-424.65 630.83,-418.95"/>
</g>
<!-- mejiro_utils&#45;&gt;mejiro_instruments_roman -->
<g id="edge35" class="edge">
<title>mejiro_utils&#45;&gt;mejiro_instruments_roman</title><style>.edge>path:hover{stroke-width:8}</style>
<path fill="none" stroke="black" d="M483.76,-752.94C486.11,-733.41 492.12,-701.3 507.3,-678.2"/>
<path fill="none" stroke="black" d="M507.3,-676.2C529.74,-642.03 502.81,-624.85 507.3,-584.22"/>
<path fill="none" stroke="black" d="M507.3,-582.22C508.49,-571.4 404.75,-476.5 349.28,-426.61"/>
<polygon fill="#f91010" stroke="black" points="351.57,-423.96 341.79,-419.89 346.89,-429.17 351.57,-423.96"/>
</g>
<!-- mejiro_utils&#45;&gt;mejiro_plots_plot_util -->
<g id="edge36" class="edge">
<title>mejiro_utils&#45;&gt;mejiro_plots_plot_util</title><style>.edge>path:hover{stroke-width:8}</style>
<path fill="none" stroke="black" d="M519.84,-768.6C618.9,-763.89 884.98,-747.63 961.3,-706.19 975.7,-698.37 973,-689.03 985.3,-678.2"/>
<path fill="none" stroke="black" d="M985.3,-676.2C1001.87,-661.6 1013.58,-639.88 1021.28,-621.22"/>
<polygon fill="#f91010" stroke="black" points="1024.59,-622.38 1024.95,-611.79 1018.06,-619.84 1024.59,-622.38"/>
</g>
<!-- mejiro_utils&#45;&gt;mejiro_synthetic_image -->
<g id="edge37" class="edge">
<title>mejiro_utils&#45;&gt;mejiro_synthetic_image</title><style>.edge>path:hover{stroke-width:8}</style>
<path fill="none" stroke="black" d="M507.3,-676.2C555.06,-603.48 610.77,-642.59 692.3,-612.21 699.54,-609.51 707.17,-606.57 714.61,-603.64"/>
<polygon fill="#f91010" stroke="black" points="715.91,-606.89 723.91,-599.95 713.33,-600.38 715.91,-606.89"/>
</g>
<!-- mejiro_utils_lenstronomy_util -->
<g id="node26" class="node">
<title>mejiro_utils_lenstronomy_util</title><style>.edge>path:hover{stroke-width:8}</style>
<ellipse fill="#c24747" stroke="black" cx="339.3" cy="-771.18" rx="62.45" ry="28.98"/>
<text text-anchor="middle" x="339.3" y="-779.68" font-family="Helvetica" font-size="10.00" fill="#ffffff">mejiro.</text>
<text text-anchor="middle" x="339.3" y="-768.68" font-family="Helvetica" font-size="10.00" fill="#ffffff">utils.</text>
<text text-anchor="middle" x="339.3" y="-757.68" font-family="Helvetica" font-size="10.00" fill="#ffffff">lenstronomy_util</text>
</g>
<!-- mejiro_utils_lenstronomy_util&#45;&gt;mejiro_engines_stpsf_engine -->
<g id="edge38" class="edge">
<title>mejiro_utils_lenstronomy_util&#45;&gt;mejiro_engines_stpsf_engine</title><style>.edge>path:hover{stroke-width:8}</style>
<path fill="none" stroke="black" d="M336.23,-742.08C334.98,-723.7 334.73,-699.27 339.3,-678.2"/>
</g>
<!-- mejiro_utils_lenstronomy_util&#45;&gt;mejiro_instruments_hwo -->
<g id="edge39" class="edge">
<title>mejiro_utils_lenstronomy_util&#45;&gt;mejiro_instruments_hwo</title><style>.edge>path:hover{stroke-width:8}</style>
<path fill="none" stroke="black" d="M387.22,-752.5C409.32,-742.11 434.17,-726.9 450.3,-706.19 493.43,-650.82 444.48,-604.66 493.3,-554.23 529.95,-516.35 575.19,-560.78 606.3,-518.23 624.36,-493.51 615.81,-458.51 604.67,-432.34"/>
<polygon fill="#c24747" stroke="black" points="607.82,-430.8 600.5,-423.14 601.44,-433.69 607.82,-430.8"/>
</g>
<!-- mejiro_utils_roman_util -->
<g id="node27" class="node">
<title>mejiro_utils_roman_util</title><style>.edge>path:hover{stroke-width:8}</style>
<ellipse fill="#db2f2f" stroke="black" cx="112.3" cy="-771.18" rx="43.68" ry="28.98"/>
<text text-anchor="middle" x="112.3" y="-779.68" font-family="Helvetica" font-size="10.00" fill="#ffffff">mejiro.</text>
<text text-anchor="middle" x="112.3" y="-768.68" font-family="Helvetica" font-size="10.00" fill="#ffffff">utils.</text>
<text text-anchor="middle" x="112.3" y="-757.68" font-family="Helvetica" font-size="10.00" fill="#ffffff">roman_util</text>
</g>
<!-- mejiro_utils_roman_util&#45;&gt;mejiro_engines_galsim_engine -->
<g id="edge40" class="edge">
<title>mejiro_utils_roman_util&#45;&gt;mejiro_engines_galsim_engine</title><style>.edge>path:hover{stroke-width:8}</style>
<path fill="none" stroke="black" d="M77.01,-753.98C49.81,-738.9 15.77,-713.45 9.3,-678.2"/>
<path fill="none" stroke="black" d="M9.3,-676.2C-0.61,-622.24 -10.38,-593.14 28.3,-554.23 109.45,-472.57 214.11,-585.12 279.3,-490.24"/>
<path fill="none" stroke="black" d="M279.3,-488.24C296.32,-463.27 264.42,-453.35 256.3,-424.24 244.84,-383.2 222.11,-370.08 237.3,-330.26"/>
<path fill="none" stroke="black" d="M237.3,-329.26C242.45,-314.8 324.96,-292.89 384.49,-278.83"/>
<polygon fill="#db2f2f" stroke="black" points="385.63,-282.16 394.57,-276.48 384.04,-275.35 385.63,-282.16"/>
</g>
<!-- mejiro_utils_roman_util&#45;&gt;mejiro_engines_romanisim_engine -->
<g id="edge41" class="edge">
<title>mejiro_utils_roman_util&#45;&gt;mejiro_engines_romanisim_engine</title><style>.edge>path:hover{stroke-width:8}</style>
<path fill="none" stroke="black" d="M9.3,-676.2C4.16,-648.23 26.24,-625.79 50.41,-610.07"/>
<polygon fill="#db2f2f" stroke="black" points="52.31,-613.01 59,-604.8 48.64,-607.05 52.31,-613.01"/>
</g>
<!-- mejiro_utils_roman_util&#45;&gt;mejiro_engines_stpsf_engine -->
<g id="edge42" class="edge">
<title>mejiro_utils_roman_util&#45;&gt;mejiro_engines_stpsf_engine</title><style>.edge>path:hover{stroke-width:8}</style>
<path fill="none" stroke="black" d="M153.84,-761.58C217.06,-747.31 331,-716.49 339.3,-678.2"/>
<path fill="none" stroke="black" d="M339.3,-676.2C343.12,-658.58 346.08,-638.81 348.2,-622.12"/>
<polygon fill="#db2f2f" stroke="black" points="351.68,-622.53 349.42,-612.18 344.73,-621.68 351.68,-622.53"/>
</g>
<!-- mejiro_utils_roman_util&#45;&gt;mejiro_instruments_roman -->
<g id="edge43" class="edge">
<title>mejiro_utils_roman_util&#45;&gt;mejiro_instruments_roman</title><style>.edge>path:hover{stroke-width:8}</style>
<path fill="none" stroke="black" d="M279.3,-488.24C290.58,-471.81 299.04,-451.35 304.91,-433.89"/>
<polygon fill="#db2f2f" stroke="black" points="308.35,-434.61 308.07,-424.02 301.69,-432.48 308.35,-434.61"/>
</g>
<!-- mejiro_utils_util -->
<g id="node28" class="node">
<title>mejiro_utils_util</title><style>.edge>path:hover{stroke-width:8}</style>
<ellipse fill="#f31616" stroke="black" cx="966.3" cy="-771.18" rx="32.55" ry="28.98"/>
<text text-anchor="middle" x="966.3" y="-779.68" font-family="Helvetica" font-size="10.00" fill="#ffffff">mejiro.</text>
<text text-anchor="middle" x="966.3" y="-768.68" font-family="Helvetica" font-size="10.00" fill="#ffffff">utils.</text>
<text text-anchor="middle" x="966.3" y="-757.68" font-family="Helvetica" font-size="10.00" fill="#ffffff">util</text>
</g>
<!-- mejiro_utils_util&#45;&gt;mejiro_analysis_lensing -->
<g id="edge44" class="edge">
<title>mejiro_utils_util&#45;&gt;mejiro_analysis_lensing</title><style>.edge>path:hover{stroke-width:8}</style>
<path fill="none" stroke="black" d="M947.3,-676.2C936.57,-654.8 920.99,-633.05 907.55,-616.08"/>
<polygon fill="#f31616" stroke="black" points="910.16,-613.73 901.16,-608.15 904.71,-618.13 910.16,-613.73"/>
</g>
<!-- mejiro_utils_util&#45;&gt;mejiro_engines_lenstronomy_engine -->
<g id="edge45" class="edge">
<title>mejiro_utils_util&#45;&gt;mejiro_engines_lenstronomy_engine</title><style>.edge>path:hover{stroke-width:8}</style>
<path fill="none" stroke="black" d="M938.58,-755.75C879.15,-724.79 738.64,-651.6 661.77,-611.55"/>
<polygon fill="#f31616" stroke="black" points="663.21,-608.36 652.72,-606.84 659.98,-614.57 663.21,-608.36"/>
</g>
<!-- mejiro_utils_util&#45;&gt;mejiro_exposure -->
<g id="edge46" class="edge">
<title>mejiro_utils_util&#45;&gt;mejiro_exposure</title><style>.edge>path:hover{stroke-width:8}</style>
<path fill="none" stroke="black" d="M947.3,-582.22C924.17,-548.51 938.3,-530.11 947.3,-490.24"/>
</g>
<!-- mejiro_utils_util&#45;&gt;mejiro_instruments_roman -->
<g id="edge47" class="edge">
<title>mejiro_utils_util&#45;&gt;mejiro_instruments_roman</title><style>.edge>path:hover{stroke-width:8}</style>
<path fill="none" stroke="black" d="M947.3,-676.2C928.98,-639.65 970.31,-618 947.3,-584.22"/>
<path fill="none" stroke="black" d="M947.3,-582.22C938.83,-569.79 941.28,-561.8 928.3,-554.23 758.81,-455.37 665.63,-602.19 488.3,-518.23 455.91,-502.9 460.78,-481.97 432.3,-460.24 419.97,-450.85 388.55,-433.78 361.36,-419.63"/>
<polygon fill="#f31616" stroke="black" points="362.83,-416.45 352.34,-414.96 359.61,-422.67 362.83,-416.45"/>
</g>
<!-- mejiro_utils_util&#45;&gt;mejiro_plots_plot_util -->
<g id="edge48" class="edge">
<title>mejiro_utils_util&#45;&gt;mejiro_plots_plot_util</title><style>.edge>path:hover{stroke-width:8}</style>
<path fill="none" stroke="black" d="M963.91,-742.12C963.81,-721.26 967.55,-693.83 985.3,-678.2"/>
</g>
<!-- mejiro_utils_util&#45;&gt;mejiro_synthetic_image -->
<g id="edge49" class="edge">
<title>mejiro_utils_util&#45;&gt;mejiro_synthetic_image</title><style>.edge>path:hover{stroke-width:8}</style>
<path fill="none" stroke="black" d="M964.28,-741.98C962.04,-723.11 957.3,-698.18 947.3,-678.2"/>
<path fill="none" stroke="black" d="M947.3,-676.2C940.51,-662.65 862.07,-626.91 809.54,-604.18"/>
<polygon fill="#f31616" stroke="black" points="810.62,-600.84 800.05,-600.1 807.85,-607.27 810.62,-600.84"/>
</g>
</g>
</svg>
