<?xml version="1.0" encoding="UTF-8" standalone="no"?>
<!DOCTYPE svg PUBLIC "-//W3C//DTD SVG 1.1//EN"
 "http://www.w3.org/Graphics/SVG/1.1/DTD/svg11.dtd">
<!-- Generated by graphviz version 2.44.0 (0)
 -->
<!-- Title: G Pages: 1 -->
<svg width="1452pt" height="614pt"
 viewBox="0.00 0.00 1452.46 614.32" xmlns="http://www.w3.org/2000/svg" xmlns:xlink="http://www.w3.org/1999/xlink">
<g id="graph0" class="graph" transform="scale(1 1) rotate(0) translate(4 610.32)">
<title>G</title><style>.edge>path:hover{stroke-width:8}</style>
<polygon fill="white" stroke="transparent" points="-4,4 -4,-610.32 1448.46,-610.32 1448.46,4 -4,4"/>
<!-- mejiro_analysis -->
<g id="node1" class="node">
<title>mejiro_analysis</title><style>.edge>path:hover{stroke-width:8}</style>
<ellipse fill="#b65353" stroke="black" cx="132.89" cy="-577.33" rx="36.54" ry="21.43"/>
<text text-anchor="middle" x="132.89" y="-580.33" font-family="Helvetica" font-size="10.00" fill="#ffffff">mejiro.</text>
<text text-anchor="middle" x="132.89" y="-569.33" font-family="Helvetica" font-size="10.00" fill="#ffffff">analysis</text>
</g>
<!-- mejiro_lenses_strong_lens -->
<g id="node18" class="node">
<title>mejiro_lenses_strong_lens</title><style>.edge>path:hover{stroke-width:8}</style>
<ellipse fill="#964040" stroke="black" cx="132.89" cy="-389.37" rx="47.25" ry="28.98"/>
<text text-anchor="middle" x="132.89" y="-397.87" font-family="Helvetica" font-size="10.00" fill="#ffffff">mejiro.</text>
<text text-anchor="middle" x="132.89" y="-386.87" font-family="Helvetica" font-size="10.00" fill="#ffffff">lenses.</text>
<text text-anchor="middle" x="132.89" y="-375.87" font-family="Helvetica" font-size="10.00" fill="#ffffff">strong_lens</text>
</g>
<!-- mejiro_analysis&#45;&gt;mejiro_lenses_strong_lens -->
<g id="edge1" class="edge">
<title>mejiro_analysis&#45;&gt;mejiro_lenses_strong_lens</title><style>.edge>path:hover{stroke-width:8}</style>
<path fill="none" stroke="black" d="M130.23,-555.93C128.4,-537.08 127.2,-508.44 132.89,-484.35"/>
</g>
<!-- mejiro_analysis_regions -->
<g id="node2" class="node">
<title>mejiro_analysis_regions</title><style>.edge>path:hover{stroke-width:8}</style>
<ellipse fill="#b65353" stroke="black" cx="38.89" cy="-577.33" rx="38.78" ry="28.98"/>
<text text-anchor="middle" x="38.89" y="-585.83" font-family="Helvetica" font-size="10.00" fill="#ffffff">mejiro.</text>
<text text-anchor="middle" x="38.89" y="-574.83" font-family="Helvetica" font-size="10.00" fill="#ffffff">analysis.</text>
<text text-anchor="middle" x="38.89" y="-563.83" font-family="Helvetica" font-size="10.00" fill="#ffffff">regions</text>
</g>
<!-- mejiro_analysis_regions&#45;&gt;mejiro_lenses_strong_lens -->
<g id="edge2" class="edge">
<title>mejiro_analysis_regions&#45;&gt;mejiro_lenses_strong_lens</title><style>.edge>path:hover{stroke-width:8}</style>
<path fill="none" stroke="black" d="M69.85,-559.23C94.1,-543.53 125.02,-517.68 132.89,-484.35"/>
<path fill="none" stroke="black" d="M132.89,-482.35C136.95,-465.14 137.5,-445.6 136.82,-428.98"/>
<polygon fill="#b65353" stroke="black" points="140.28,-428.31 136.21,-418.53 133.29,-428.71 140.28,-428.31"/>
</g>
<!-- mejiro_engines -->
<g id="node3" class="node">
<title>mejiro_engines</title><style>.edge>path:hover{stroke-width:8}</style>
<ellipse fill="#f31616" stroke="black" cx="750.89" cy="-107.42" rx="47.19" ry="18"/>
<text text-anchor="middle" x="750.89" y="-104.92" font-family="Helvetica" font-size="10.00" fill="#ffffff">mejiro.engines</text>
</g>
<!-- mejiro_exposure -->
<g id="node10" class="node">
<title>mejiro_exposure</title><style>.edge>path:hover{stroke-width:8}</style>
<ellipse fill="#7e4444" stroke="black" cx="750.89" cy="-21.21" rx="39.7" ry="21.43"/>
<text text-anchor="middle" x="750.89" y="-24.21" font-family="Helvetica" font-size="10.00" fill="#ffffff">mejiro.</text>
<text text-anchor="middle" x="750.89" y="-13.21" font-family="Helvetica" font-size="10.00" fill="#ffffff">exposure</text>
</g>
<!-- mejiro_engines&#45;&gt;mejiro_exposure -->
<g id="edge3" class="edge">
<title>mejiro_engines&#45;&gt;mejiro_exposure</title><style>.edge>path:hover{stroke-width:8}</style>
<path fill="none" stroke="black" d="M750.89,-89.38C750.89,-78.9 750.89,-65.16 750.89,-52.84"/>
<polygon fill="#f31616" stroke="black" points="754.39,-52.49 750.89,-42.49 747.39,-52.49 754.39,-52.49"/>
</g>
<!-- mejiro_engines_engine -->
<g id="node4" class="node">
<title>mejiro_engines_engine</title><style>.edge>path:hover{stroke-width:8}</style>
<ellipse fill="#e72222" stroke="black" cx="1024.89" cy="-483.35" rx="37.45" ry="28.98"/>
<text text-anchor="middle" x="1024.89" y="-491.85" font-family="Helvetica" font-size="10.00" fill="#ffffff">mejiro.</text>
<text text-anchor="middle" x="1024.89" y="-480.85" font-family="Helvetica" font-size="10.00" fill="#ffffff">engines.</text>
<text text-anchor="middle" x="1024.89" y="-469.85" font-family="Helvetica" font-size="10.00" fill="#ffffff">engine</text>
</g>
<!-- mejiro_engines_galsim_engine -->
<g id="node5" class="node">
<title>mejiro_engines_galsim_engine</title><style>.edge>path:hover{stroke-width:8}</style>
<ellipse fill="#813737" stroke="black" cx="963.89" cy="-201.4" rx="55.72" ry="28.98"/>
<text text-anchor="middle" x="963.89" y="-209.9" font-family="Helvetica" font-size="10.00" fill="#ffffff">mejiro.</text>
<text text-anchor="middle" x="963.89" y="-198.9" font-family="Helvetica" font-size="10.00" fill="#ffffff">engines.</text>
<text text-anchor="middle" x="963.89" y="-187.9" font-family="Helvetica" font-size="10.00" fill="#ffffff">galsim_engine</text>
</g>
<!-- mejiro_engines_engine&#45;&gt;mejiro_engines_galsim_engine -->
<g id="edge4" class="edge">
<title>mejiro_engines_engine&#45;&gt;mejiro_engines_galsim_engine</title><style>.edge>path:hover{stroke-width:8}</style>
<path fill="none" stroke="black" d="M963.89,-294.38C958.44,-277.24 957.79,-257.38 958.76,-240.51"/>
<polygon fill="#e72222" stroke="black" points="962.26,-240.69 959.55,-230.44 955.28,-240.14 962.26,-240.69"/>
</g>
<!-- mejiro_engines_lenstronomy_engine -->
<g id="node6" class="node">
<title>mejiro_engines_lenstronomy_engine</title><style>.edge>path:hover{stroke-width:8}</style>
<ellipse fill="#964040" stroke="black" cx="435.89" cy="-389.37" rx="73.58" ry="28.98"/>
<text text-anchor="middle" x="435.89" y="-397.87" font-family="Helvetica" font-size="10.00" fill="#ffffff">mejiro.</text>
<text text-anchor="middle" x="435.89" y="-386.87" font-family="Helvetica" font-size="10.00" fill="#ffffff">engines.</text>
<text text-anchor="middle" x="435.89" y="-375.87" font-family="Helvetica" font-size="10.00" fill="#ffffff">lenstronomy_engine</text>
</g>
<!-- mejiro_engines_engine&#45;&gt;mejiro_engines_lenstronomy_engine -->
<g id="edge5" class="edge">
<title>mejiro_engines_engine&#45;&gt;mejiro_engines_lenstronomy_engine</title><style>.edge>path:hover{stroke-width:8}</style>
<path fill="none" stroke="black" d="M987.7,-478.43C908.24,-469.81 716.19,-447.61 556.89,-418.36 540.65,-415.37 523.29,-411.67 506.94,-407.94"/>
<polygon fill="#e72222" stroke="black" points="507.44,-404.47 496.91,-405.63 505.87,-411.29 507.44,-404.47"/>
</g>
<!-- mejiro_engines_pandeia_engine -->
<g id="node7" class="node">
<title>mejiro_engines_pandeia_engine</title><style>.edge>path:hover{stroke-width:8}</style>
<ellipse fill="#964040" stroke="black" cx="830.89" cy="-201.4" rx="59.29" ry="28.98"/>
<text text-anchor="middle" x="830.89" y="-209.9" font-family="Helvetica" font-size="10.00" fill="#ffffff">mejiro.</text>
<text text-anchor="middle" x="830.89" y="-198.9" font-family="Helvetica" font-size="10.00" fill="#ffffff">engines.</text>
<text text-anchor="middle" x="830.89" y="-187.9" font-family="Helvetica" font-size="10.00" fill="#ffffff">pandeia_engine</text>
</g>
<!-- mejiro_engines_engine&#45;&gt;mejiro_engines_pandeia_engine -->
<g id="edge6" class="edge">
<title>mejiro_engines_engine&#45;&gt;mejiro_engines_pandeia_engine</title><style>.edge>path:hover{stroke-width:8}</style>
<path fill="none" stroke="black" d="M1005.49,-458.17C997.26,-446.73 988.34,-432.49 982.89,-418.36 963.17,-367.16 980.52,-348.67 963.89,-296.38"/>
<path fill="none" stroke="black" d="M963.89,-294.38C956.28,-275.43 914.36,-248.31 879.59,-228.43"/>
<polygon fill="#e72222" stroke="black" points="880.89,-225.15 870.46,-223.28 877.45,-231.24 880.89,-225.15"/>
</g>
<!-- mejiro_engines_romanisim_engine -->
<g id="node8" class="node">
<title>mejiro_engines_romanisim_engine</title><style>.edge>path:hover{stroke-width:8}</style>
<ellipse fill="#8b4b4b" stroke="black" cx="1058.89" cy="-389.37" rx="67.35" ry="28.98"/>
<text text-anchor="middle" x="1058.89" y="-397.87" font-family="Helvetica" font-size="10.00" fill="#ffffff">mejiro.</text>
<text text-anchor="middle" x="1058.89" y="-386.87" font-family="Helvetica" font-size="10.00" fill="#ffffff">engines.</text>
<text text-anchor="middle" x="1058.89" y="-375.87" font-family="Helvetica" font-size="10.00" fill="#ffffff">romanisim_engine</text>
</g>
<!-- mejiro_engines_engine&#45;&gt;mejiro_engines_romanisim_engine -->
<g id="edge7" class="edge">
<title>mejiro_engines_engine&#45;&gt;mejiro_engines_romanisim_engine</title><style>.edge>path:hover{stroke-width:8}</style>
<path fill="none" stroke="black" d="M1034.91,-455.25C1038.11,-446.6 1041.7,-436.86 1045.12,-427.62"/>
<polygon fill="#e72222" stroke="black" points="1048.41,-428.82 1048.59,-418.23 1041.84,-426.4 1048.41,-428.82"/>
</g>
<!-- mejiro_engines_stpsf_engine -->
<g id="node9" class="node">
<title>mejiro_engines_stpsf_engine</title><style>.edge>path:hover{stroke-width:8}</style>
<ellipse fill="#854747" stroke="black" cx="1194.89" cy="-389.37" rx="50.82" ry="28.98"/>
<text text-anchor="middle" x="1194.89" y="-397.87" font-family="Helvetica" font-size="10.00" fill="#ffffff">mejiro.</text>
<text text-anchor="middle" x="1194.89" y="-386.87" font-family="Helvetica" font-size="10.00" fill="#ffffff">engines.</text>
<text text-anchor="middle" x="1194.89" y="-375.87" font-family="Helvetica" font-size="10.00" fill="#ffffff">stpsf_engine</text>
</g>
<!-- mejiro_engines_engine&#45;&gt;mejiro_engines_stpsf_engine -->
<g id="edge8" class="edge">
<title>mejiro_engines_engine&#45;&gt;mejiro_engines_stpsf_engine</title><style>.edge>path:hover{stroke-width:8}</style>
<path fill="none" stroke="black" d="M1055.28,-465.9C1081.59,-451.67 1120.01,-430.88 1149.89,-414.72"/>
<polygon fill="#e72222" stroke="black" points="1151.73,-417.7 1158.86,-409.86 1148.4,-411.54 1151.73,-417.7"/>
</g>
<!-- mejiro_engines_galsim_engine&#45;&gt;mejiro_exposure -->
<g id="edge9" class="edge">
<title>mejiro_engines_galsim_engine&#45;&gt;mejiro_exposure</title><style>.edge>path:hover{stroke-width:8}</style>
<path fill="none" stroke="black" d="M935.16,-176.37C894.37,-142.24 820.1,-80.11 779.42,-46.08"/>
<polygon fill="#813737" stroke="black" points="781.42,-43.19 771.51,-39.46 776.93,-48.56 781.42,-43.19"/>
</g>
<!-- mejiro_engines_lenstronomy_engine&#45;&gt;mejiro_exposure -->
<g id="edge10" class="edge">
<title>mejiro_engines_lenstronomy_engine&#45;&gt;mejiro_exposure</title><style>.edge>path:hover{stroke-width:8}</style>
<path fill="none" stroke="black" d="M475.61,-364.82C498.53,-348.77 525.25,-325.21 537.89,-296.38"/>
</g>
<!-- mejiro_engines_pandeia_engine&#45;&gt;mejiro_exposure -->
<g id="edge11" class="edge">
<title>mejiro_engines_pandeia_engine&#45;&gt;mejiro_exposure</title><style>.edge>path:hover{stroke-width:8}</style>
<path fill="none" stroke="black" d="M773.32,-194.26C686.7,-183.41 533.34,-157.26 537.89,-108.42"/>
</g>
<!-- mejiro_galaxy_galaxy -->
<g id="node11" class="node">
<title>mejiro_galaxy_galaxy</title><style>.edge>path:hover{stroke-width:8}</style>
<ellipse fill="#ac4949" stroke="black" cx="1387.89" cy="-483.35" rx="56.64" ry="21.43"/>
<text text-anchor="middle" x="1387.89" y="-486.35" font-family="Helvetica" font-size="10.00" fill="#ffffff">mejiro.</text>
<text text-anchor="middle" x="1387.89" y="-475.35" font-family="Helvetica" font-size="10.00" fill="#ffffff">galaxy_galaxy</text>
</g>
<!-- mejiro_utils_slsim_util -->
<g id="node26" class="node">
<title>mejiro_utils_slsim_util</title><style>.edge>path:hover{stroke-width:8}</style>
<ellipse fill="#9f5656" stroke="black" cx="1387.89" cy="-295.38" rx="41.02" ry="28.98"/>
<text text-anchor="middle" x="1387.89" y="-303.88" font-family="Helvetica" font-size="10.00" fill="#ffffff">mejiro.</text>
<text text-anchor="middle" x="1387.89" y="-292.88" font-family="Helvetica" font-size="10.00" fill="#ffffff">utils.</text>
<text text-anchor="middle" x="1387.89" y="-281.88" font-family="Helvetica" font-size="10.00" fill="#ffffff">slsim_util</text>
</g>
<!-- mejiro_galaxy_galaxy&#45;&gt;mejiro_utils_slsim_util -->
<g id="edge12" class="edge">
<title>mejiro_galaxy_galaxy&#45;&gt;mejiro_utils_slsim_util</title><style>.edge>path:hover{stroke-width:8}</style>
<path fill="none" stroke="black" d="M1387.89,-462.09C1387.89,-431.63 1387.89,-373.49 1387.89,-334.82"/>
<polygon fill="#ac4949" stroke="black" points="1391.39,-334.46 1387.89,-324.46 1384.39,-334.46 1391.39,-334.46"/>
</g>
<!-- mejiro_instruments -->
<g id="node12" class="node">
<title>mejiro_instruments</title><style>.edge>path:hover{stroke-width:8}</style>
<ellipse fill="#db2f2f" stroke="black" cx="849.89" cy="-389.37" rx="48.17" ry="21.43"/>
<text text-anchor="middle" x="849.89" y="-392.37" font-family="Helvetica" font-size="10.00" fill="#ffffff">mejiro.</text>
<text text-anchor="middle" x="849.89" y="-381.37" font-family="Helvetica" font-size="10.00" fill="#ffffff">instruments</text>
</g>
<!-- mejiro_instruments&#45;&gt;mejiro_engines_galsim_engine -->
<g id="edge13" class="edge">
<title>mejiro_instruments&#45;&gt;mejiro_engines_galsim_engine</title><style>.edge>path:hover{stroke-width:8}</style>
<path fill="none" stroke="black" d="M865.92,-369C881.31,-350.39 905.21,-321.48 925.89,-296.38"/>
</g>
<!-- mejiro_instruments&#45;&gt;mejiro_engines_pandeia_engine -->
<g id="edge14" class="edge">
<title>mejiro_instruments&#45;&gt;mejiro_engines_pandeia_engine</title><style>.edge>path:hover{stroke-width:8}</style>
<path fill="none" stroke="black" d="M842.76,-368.26C837.15,-349.11 831.68,-319.83 840.89,-296.38"/>
</g>
<!-- mejiro_instruments_hwo -->
<g id="node13" class="node">
<title>mejiro_instruments_hwo</title><style>.edge>path:hover{stroke-width:8}</style>
<ellipse fill="#a44646" stroke="black" cx="733.89" cy="-389.37" rx="50.41" ry="28.98"/>
<text text-anchor="middle" x="733.89" y="-397.87" font-family="Helvetica" font-size="10.00" fill="#ffffff">mejiro.</text>
<text text-anchor="middle" x="733.89" y="-386.87" font-family="Helvetica" font-size="10.00" fill="#ffffff">instruments.</text>
<text text-anchor="middle" x="733.89" y="-375.87" font-family="Helvetica" font-size="10.00" fill="#ffffff">hwo</text>
</g>
<!-- mejiro_instruments_hwo&#45;&gt;mejiro_engines_galsim_engine -->
<g id="edge15" class="edge">
<title>mejiro_instruments_hwo&#45;&gt;mejiro_engines_galsim_engine</title><style>.edge>path:hover{stroke-width:8}</style>
<path fill="none" stroke="black" d="M772.12,-370.17C827.93,-343.6 925.22,-297.2 925.89,-296.38"/>
</g>
<!-- mejiro_instruments_instrument -->
<g id="node14" class="node">
<title>mejiro_instruments_instrument</title><style>.edge>path:hover{stroke-width:8}</style>
<ellipse fill="#c24747" stroke="black" cx="713.89" cy="-483.35" rx="50.41" ry="28.98"/>
<text text-anchor="middle" x="713.89" y="-491.85" font-family="Helvetica" font-size="10.00" fill="#ffffff">mejiro.</text>
<text text-anchor="middle" x="713.89" y="-480.85" font-family="Helvetica" font-size="10.00" fill="#ffffff">instruments.</text>
<text text-anchor="middle" x="713.89" y="-469.85" font-family="Helvetica" font-size="10.00" fill="#ffffff">instrument</text>
</g>
<!-- mejiro_instruments_instrument&#45;&gt;mejiro_instruments_hwo -->
<g id="edge16" class="edge">
<title>mejiro_instruments_instrument&#45;&gt;mejiro_instruments_hwo</title><style>.edge>path:hover{stroke-width:8}</style>
<path fill="none" stroke="black" d="M720,-454.25C721.78,-446.05 723.76,-436.95 725.65,-428.25"/>
<polygon fill="#c24747" stroke="black" points="729.11,-428.81 727.82,-418.29 722.27,-427.32 729.11,-428.81"/>
</g>
<!-- mejiro_instruments_roman -->
<g id="node15" class="node">
<title>mejiro_instruments_roman</title><style>.edge>path:hover{stroke-width:8}</style>
<ellipse fill="#993333" stroke="black" cx="615.89" cy="-389.37" rx="50.41" ry="28.98"/>
<text text-anchor="middle" x="615.89" y="-397.87" font-family="Helvetica" font-size="10.00" fill="#ffffff">mejiro.</text>
<text text-anchor="middle" x="615.89" y="-386.87" font-family="Helvetica" font-size="10.00" fill="#ffffff">instruments.</text>
<text text-anchor="middle" x="615.89" y="-375.87" font-family="Helvetica" font-size="10.00" fill="#ffffff">roman</text>
</g>
<!-- mejiro_instruments_instrument&#45;&gt;mejiro_instruments_roman -->
<g id="edge17" class="edge">
<title>mejiro_instruments_instrument&#45;&gt;mejiro_instruments_roman</title><style>.edge>path:hover{stroke-width:8}</style>
<path fill="none" stroke="black" d="M688.14,-458.18C676.1,-446.88 661.62,-433.29 648.8,-421.25"/>
<polygon fill="#c24747" stroke="black" points="651.15,-418.66 641.47,-414.37 646.36,-423.77 651.15,-418.66"/>
</g>
<!-- mejiro_instruments_roman&#45;&gt;mejiro_engines_galsim_engine -->
<g id="edge18" class="edge">
<title>mejiro_instruments_roman&#45;&gt;mejiro_engines_galsim_engine</title><style>.edge>path:hover{stroke-width:8}</style>
<path fill="none" stroke="black" d="M652.46,-369.32C659.76,-366.01 667.47,-362.84 674.89,-360.37 784.16,-324.14 852.68,-385.23 925.89,-296.38"/>
<path fill="none" stroke="black" d="M925.89,-294.38C938.87,-278.63 947.96,-257.83 953.99,-240"/>
<polygon fill="#993333" stroke="black" points="957.33,-241.03 957.03,-230.44 950.66,-238.91 957.33,-241.03"/>
</g>
<!-- mejiro_instruments_roman&#45;&gt;mejiro_engines_pandeia_engine -->
<g id="edge19" class="edge">
<title>mejiro_instruments_roman&#45;&gt;mejiro_engines_pandeia_engine</title><style>.edge>path:hover{stroke-width:8}</style>
<path fill="none" stroke="black" d="M653.47,-370.02C660.54,-366.72 667.91,-363.37 674.89,-360.37 747.55,-329.19 811.98,-369.98 840.89,-296.38"/>
<path fill="none" stroke="black" d="M840.89,-294.38C847.55,-277.42 846.35,-257.43 842.94,-240.42"/>
<polygon fill="#993333" stroke="black" points="846.25,-239.22 840.58,-230.27 839.43,-240.8 846.25,-239.22"/>
</g>
<!-- mejiro_lenses -->
<g id="node16" class="node">
<title>mejiro_lenses</title><style>.edge>path:hover{stroke-width:8}</style>
<ellipse fill="#c24747" stroke="black" cx="45.89" cy="-295.38" rx="43.62" ry="18"/>
<text text-anchor="middle" x="45.89" y="-292.88" font-family="Helvetica" font-size="10.00" fill="#ffffff">mejiro.lenses</text>
</g>
<!-- mejiro_plots_diagnostic_plot -->
<g id="node19" class="node">
<title>mejiro_plots_diagnostic_plot</title><style>.edge>path:hover{stroke-width:8}</style>
<ellipse fill="#8b4b4b" stroke="black" cx="209.89" cy="-107.42" rx="57.97" ry="28.98"/>
<text text-anchor="middle" x="209.89" y="-115.92" font-family="Helvetica" font-size="10.00" fill="#ffffff">mejiro.</text>
<text text-anchor="middle" x="209.89" y="-104.92" font-family="Helvetica" font-size="10.00" fill="#ffffff">plots.</text>
<text text-anchor="middle" x="209.89" y="-93.92" font-family="Helvetica" font-size="10.00" fill="#ffffff">diagnostic_plot</text>
</g>
<!-- mejiro_lenses&#45;&gt;mejiro_plots_diagnostic_plot -->
<g id="edge20" class="edge">
<title>mejiro_lenses&#45;&gt;mejiro_plots_diagnostic_plot</title><style>.edge>path:hover{stroke-width:8}</style>
<path fill="none" stroke="black" d="M71.27,-280.7C116.99,-255.99 208.58,-206.09 209.89,-202.4"/>
<path fill="none" stroke="black" d="M209.89,-200.4C215.91,-183.45 216.63,-163.61 215.55,-146.71"/>
<polygon fill="#c24747" stroke="black" points="219.03,-146.27 214.68,-136.61 212.05,-146.88 219.03,-146.27"/>
</g>
<!-- mejiro_lenses_lens_util -->
<g id="node17" class="node">
<title>mejiro_lenses_lens_util</title><style>.edge>path:hover{stroke-width:8}</style>
<ellipse fill="#964040" stroke="black" cx="144.89" cy="-295.38" rx="37.45" ry="28.98"/>
<text text-anchor="middle" x="144.89" y="-303.88" font-family="Helvetica" font-size="10.00" fill="#ffffff">mejiro.</text>
<text text-anchor="middle" x="144.89" y="-292.88" font-family="Helvetica" font-size="10.00" fill="#ffffff">lenses.</text>
<text text-anchor="middle" x="144.89" y="-281.88" font-family="Helvetica" font-size="10.00" fill="#ffffff">lens_util</text>
</g>
<!-- mejiro_lenses_lens_util&#45;&gt;mejiro_plots_diagnostic_plot -->
<g id="edge21" class="edge">
<title>mejiro_lenses_lens_util&#45;&gt;mejiro_plots_diagnostic_plot</title><style>.edge>path:hover{stroke-width:8}</style>
<path fill="none" stroke="black" d="M166.55,-271.47C181.62,-254.01 200.6,-228.57 209.89,-202.4"/>
</g>
<!-- mejiro_lenses_strong_lens&#45;&gt;mejiro_lenses_lens_util -->
<g id="edge22" class="edge">
<title>mejiro_lenses_strong_lens&#45;&gt;mejiro_lenses_lens_util</title><style>.edge>path:hover{stroke-width:8}</style>
<path fill="none" stroke="black" d="M136.56,-360.27C137.63,-352.07 138.81,-342.96 139.95,-334.26"/>
<polygon fill="#964040" stroke="black" points="143.42,-334.68 141.25,-324.31 136.48,-333.77 143.42,-334.68"/>
</g>
<!-- mejiro_plots_plot -->
<g id="node20" class="node">
<title>mejiro_plots_plot</title><style>.edge>path:hover{stroke-width:8}</style>
<ellipse fill="#995252" stroke="black" cx="270.89" cy="-295.38" rx="32.55" ry="28.98"/>
<text text-anchor="middle" x="270.89" y="-303.88" font-family="Helvetica" font-size="10.00" fill="#ffffff">mejiro.</text>
<text text-anchor="middle" x="270.89" y="-292.88" font-family="Helvetica" font-size="10.00" fill="#ffffff">plots.</text>
<text text-anchor="middle" x="270.89" y="-281.88" font-family="Helvetica" font-size="10.00" fill="#ffffff">plot</text>
</g>
<!-- mejiro_plots_plot_util -->
<g id="node21" class="node">
<title>mejiro_plots_plot_util</title><style>.edge>path:hover{stroke-width:8}</style>
<ellipse fill="#b03a3a" stroke="black" cx="270.89" cy="-389.37" rx="35.21" ry="28.98"/>
<text text-anchor="middle" x="270.89" y="-397.87" font-family="Helvetica" font-size="10.00" fill="#ffffff">mejiro.</text>
<text text-anchor="middle" x="270.89" y="-386.87" font-family="Helvetica" font-size="10.00" fill="#ffffff">plots.</text>
<text text-anchor="middle" x="270.89" y="-375.87" font-family="Helvetica" font-size="10.00" fill="#ffffff">plot_util</text>
</g>
<!-- mejiro_plots_plot_util&#45;&gt;mejiro_plots_diagnostic_plot -->
<g id="edge23" class="edge">
<title>mejiro_plots_plot_util&#45;&gt;mejiro_plots_diagnostic_plot</title><style>.edge>path:hover{stroke-width:8}</style>
<path fill="none" stroke="black" d="M252.75,-364.46C228.12,-328.94 189.38,-260.2 209.89,-202.4"/>
</g>
<!-- mejiro_plots_plot_util&#45;&gt;mejiro_plots_plot -->
<g id="edge24" class="edge">
<title>mejiro_plots_plot_util&#45;&gt;mejiro_plots_plot</title><style>.edge>path:hover{stroke-width:8}</style>
<path fill="none" stroke="black" d="M270.89,-360.27C270.89,-352.23 270.89,-343.33 270.89,-334.79"/>
<polygon fill="#b03a3a" stroke="black" points="274.39,-334.63 270.89,-324.63 267.39,-334.63 274.39,-334.63"/>
</g>
<!-- mejiro_strong_lens -->
<g id="node22" class="node">
<title>mejiro_strong_lens</title><style>.edge>path:hover{stroke-width:8}</style>
<ellipse fill="#b65353" stroke="black" cx="1387.89" cy="-577.33" rx="47.25" ry="21.43"/>
<text text-anchor="middle" x="1387.89" y="-580.33" font-family="Helvetica" font-size="10.00" fill="#ffffff">mejiro.</text>
<text text-anchor="middle" x="1387.89" y="-569.33" font-family="Helvetica" font-size="10.00" fill="#ffffff">strong_lens</text>
</g>
<!-- mejiro_strong_lens&#45;&gt;mejiro_galaxy_galaxy -->
<g id="edge25" class="edge">
<title>mejiro_strong_lens&#45;&gt;mejiro_galaxy_galaxy</title><style>.edge>path:hover{stroke-width:8}</style>
<path fill="none" stroke="black" d="M1387.89,-555.92C1387.89,-543.89 1387.89,-528.44 1387.89,-514.98"/>
<polygon fill="#b65353" stroke="black" points="1391.39,-514.71 1387.89,-504.71 1384.39,-514.71 1391.39,-514.71"/>
</g>
<!-- mejiro_utils -->
<g id="node23" class="node">
<title>mejiro_utils</title><style>.edge>path:hover{stroke-width:8}</style>
<ellipse fill="#f91010" stroke="black" cx="486.89" cy="-577.33" rx="37.85" ry="18"/>
<text text-anchor="middle" x="486.89" y="-574.83" font-family="Helvetica" font-size="10.00" fill="#ffffff">mejiro.utils</text>
</g>
<!-- mejiro_utils&#45;&gt;mejiro_engines_galsim_engine -->
<g id="edge26" class="edge">
<title>mejiro_utils&#45;&gt;mejiro_engines_galsim_engine</title><style>.edge>path:hover{stroke-width:8}</style>
<path fill="none" stroke="black" d="M523.53,-572.76C579.36,-566.31 688.18,-549.75 772.89,-512.34 839.43,-482.95 868.45,-480.11 906.89,-418.36 935.89,-371.78 891,-338.73 925.89,-296.38"/>
</g>
<!-- mejiro_utils&#45;&gt;mejiro_engines_lenstronomy_engine -->
<g id="edge27" class="edge">
<title>mejiro_utils&#45;&gt;mejiro_engines_lenstronomy_engine</title><style>.edge>path:hover{stroke-width:8}</style>
<path fill="none" stroke="black" d="M435.89,-482.35C425.2,-467.02 424.29,-446.48 426.44,-428.7"/>
<polygon fill="#f91010" stroke="black" points="429.93,-429.03 428.02,-418.61 423.02,-427.95 429.93,-429.03"/>
</g>
<!-- mejiro_utils&#45;&gt;mejiro_engines_romanisim_engine -->
<g id="edge28" class="edge">
<title>mejiro_utils&#45;&gt;mejiro_engines_romanisim_engine</title><style>.edge>path:hover{stroke-width:8}</style>
<path fill="none" stroke="black" d="M524.12,-574.47C617.12,-569.36 866.76,-552.67 1070.89,-512.34 1114.91,-503.64 1145.94,-523.48 1167.89,-484.35"/>
<path fill="none" stroke="black" d="M1167.89,-482.35C1184.33,-453.03 1152.69,-428.95 1119.34,-412.78"/>
<polygon fill="#f91010" stroke="black" points="1120.47,-409.45 1109.93,-408.44 1117.54,-415.81 1120.47,-409.45"/>
</g>
<!-- mejiro_utils&#45;&gt;mejiro_engines_stpsf_engine -->
<g id="edge29" class="edge">
<title>mejiro_utils&#45;&gt;mejiro_engines_stpsf_engine</title><style>.edge>path:hover{stroke-width:8}</style>
<path fill="none" stroke="black" d="M1167.89,-482.35C1177.13,-465.88 1183.48,-445.94 1187.69,-428.85"/>
<polygon fill="#f91010" stroke="black" points="1191.21,-429.15 1190.04,-418.62 1184.39,-427.58 1191.21,-429.15"/>
</g>
<!-- mejiro_utils&#45;&gt;mejiro_exposure -->
<g id="edge30" class="edge">
<title>mejiro_utils&#45;&gt;mejiro_exposure</title><style>.edge>path:hover{stroke-width:8}</style>
<path fill="none" stroke="black" d="M496.92,-559.7C507.69,-541.52 524.99,-511.37 537.89,-484.35"/>
<path fill="none" stroke="black" d="M537.89,-482.35C573.49,-407.76 504.71,-372.08 537.89,-296.38"/>
</g>
<!-- mejiro_utils&#45;&gt;mejiro_instruments_roman -->
<g id="edge31" class="edge">
<title>mejiro_utils&#45;&gt;mejiro_instruments_roman</title><style>.edge>path:hover{stroke-width:8}</style>
<path fill="none" stroke="black" d="M537.89,-482.35C548.68,-459.74 566.43,-438.16 582.27,-421.6"/>
<polygon fill="#f91010" stroke="black" points="584.87,-423.94 589.38,-414.36 579.88,-419.04 584.87,-423.94"/>
</g>
<!-- mejiro_utils&#45;&gt;mejiro_lenses_lens_util -->
<g id="edge32" class="edge">
<title>mejiro_utils&#45;&gt;mejiro_lenses_lens_util</title><style>.edge>path:hover{stroke-width:8}</style>
<path fill="none" stroke="black" d="M454.94,-567.59C421.17,-557.47 367.2,-538.75 325.89,-512.34 300.33,-496 246.52,-441.48 226.89,-418.36 217.16,-406.89 214.87,-403.68 207.89,-390.37"/>
</g>
<!-- mejiro_utils&#45;&gt;mejiro_lenses_strong_lens -->
<g id="edge33" class="edge">
<title>mejiro_utils&#45;&gt;mejiro_lenses_strong_lens</title><style>.edge>path:hover{stroke-width:8}</style>
<path fill="none" stroke="black" d="M453.05,-569.33C412.24,-560.03 342.36,-541.32 287.89,-512.34 241.41,-487.61 194.85,-448.59 165.07,-421.36"/>
<polygon fill="#f91010" stroke="black" points="167.22,-418.58 157.5,-414.36 162.47,-423.72 167.22,-418.58"/>
</g>
<!-- mejiro_utils&#45;&gt;mejiro_plots_plot_util -->
<g id="edge34" class="edge">
<title>mejiro_utils&#45;&gt;mejiro_plots_plot_util</title><style>.edge>path:hover{stroke-width:8}</style>
<path fill="none" stroke="black" d="M478.84,-559.44C469.52,-540.51 453.23,-509.21 435.89,-484.35"/>
<path fill="none" stroke="black" d="M435.89,-482.35C420.21,-459.85 354.61,-427.5 310.99,-407.76"/>
<polygon fill="#f91010" stroke="black" points="312.33,-404.53 301.78,-403.63 309.47,-410.91 312.33,-404.53"/>
</g>
<!-- mejiro_utils_lenstronomy_util -->
<g id="node24" class="node">
<title>mejiro_utils_lenstronomy_util</title><style>.edge>path:hover{stroke-width:8}</style>
<ellipse fill="#b65353" stroke="black" cx="1259.89" cy="-577.33" rx="62.45" ry="28.98"/>
<text text-anchor="middle" x="1259.89" y="-585.83" font-family="Helvetica" font-size="10.00" fill="#ffffff">mejiro.</text>
<text text-anchor="middle" x="1259.89" y="-574.83" font-family="Helvetica" font-size="10.00" fill="#ffffff">utils.</text>
<text text-anchor="middle" x="1259.89" y="-563.83" font-family="Helvetica" font-size="10.00" fill="#ffffff">lenstronomy_util</text>
</g>
<!-- mejiro_utils_lenstronomy_util&#45;&gt;mejiro_engines_stpsf_engine -->
<g id="edge35" class="edge">
<title>mejiro_utils_lenstronomy_util&#45;&gt;mejiro_engines_stpsf_engine</title><style>.edge>path:hover{stroke-width:8}</style>
<path fill="none" stroke="black" d="M1257.4,-548.36C1254.45,-523.07 1248.28,-485.2 1235.89,-454.36 1231.83,-444.24 1226.12,-434 1220.25,-424.75"/>
<polygon fill="#b65353" stroke="black" points="1223.05,-422.65 1214.62,-416.23 1217.21,-426.51 1223.05,-422.65"/>
</g>
<!-- mejiro_utils_roman_util -->
<g id="node25" class="node">
<title>mejiro_utils_roman_util</title><style>.edge>path:hover{stroke-width:8}</style>
<ellipse fill="#db2f2f" stroke="black" cx="900.89" cy="-577.33" rx="43.68" ry="28.98"/>
<text text-anchor="middle" x="900.89" y="-585.83" font-family="Helvetica" font-size="10.00" fill="#ffffff">mejiro.</text>
<text text-anchor="middle" x="900.89" y="-574.83" font-family="Helvetica" font-size="10.00" fill="#ffffff">utils.</text>
<text text-anchor="middle" x="900.89" y="-563.83" font-family="Helvetica" font-size="10.00" fill="#ffffff">roman_util</text>
</g>
<!-- mejiro_utils_roman_util&#45;&gt;mejiro_engines_galsim_engine -->
<g id="edge36" class="edge">
<title>mejiro_utils_roman_util&#45;&gt;mejiro_engines_galsim_engine</title><style>.edge>path:hover{stroke-width:8}</style>
<path fill="none" stroke="black" d="M1221.89,-482.35C1244.55,-430.97 1283.61,-408.64 1254.89,-360.37 1205.3,-277.03 1094.7,-234.93 1025.03,-215.91"/>
<polygon fill="#db2f2f" stroke="black" points="1025.62,-212.44 1015.06,-213.27 1023.83,-219.21 1025.62,-212.44"/>
</g>
<!-- mejiro_utils_roman_util&#45;&gt;mejiro_engines_romanisim_engine -->
<g id="edge37" class="edge">
<title>mejiro_utils_roman_util&#45;&gt;mejiro_engines_romanisim_engine</title><style>.edge>path:hover{stroke-width:8}</style>
<path fill="none" stroke="black" d="M943.94,-571.85C1026.11,-562.16 1199.17,-535.87 1221.89,-484.35"/>
<path fill="none" stroke="black" d="M1221.89,-482.35C1227.1,-470.55 1163.15,-438.01 1113.82,-414.99"/>
<polygon fill="#db2f2f" stroke="black" points="1115.04,-411.69 1104.49,-410.66 1112.09,-418.04 1115.04,-411.69"/>
</g>
<!-- mejiro_utils_roman_util&#45;&gt;mejiro_engines_stpsf_engine -->
<g id="edge38" class="edge">
<title>mejiro_utils_roman_util&#45;&gt;mejiro_engines_stpsf_engine</title><style>.edge>path:hover{stroke-width:8}</style>
<path fill="none" stroke="black" d="M1221.89,-482.35C1229.82,-464.36 1224.69,-443.39 1216.85,-426.02"/>
<polygon fill="#db2f2f" stroke="black" points="1219.86,-424.19 1212.29,-416.78 1213.58,-427.29 1219.86,-424.19"/>
</g>
<!-- mejiro_utils_roman_util&#45;&gt;mejiro_instruments_roman -->
<g id="edge39" class="edge">
<title>mejiro_utils_roman_util&#45;&gt;mejiro_instruments_roman</title><style>.edge>path:hover{stroke-width:8}</style>
<path fill="none" stroke="black" d="M856.62,-577.04C802.12,-575.47 710.02,-564.52 654.89,-512.34 632.01,-490.69 622.51,-455.64 618.59,-428.65"/>
<polygon fill="#db2f2f" stroke="black" points="622.02,-427.87 617.3,-418.38 615.07,-428.74 622.02,-427.87"/>
</g>
<!-- mejiro_utils_util -->
<g id="node27" class="node">
<title>mejiro_utils_util</title><style>.edge>path:hover{stroke-width:8}</style>
<ellipse fill="#f31616" stroke="black" cx="301.89" cy="-577.33" rx="32.55" ry="28.98"/>
<text text-anchor="middle" x="301.89" y="-585.83" font-family="Helvetica" font-size="10.00" fill="#ffffff">mejiro.</text>
<text text-anchor="middle" x="301.89" y="-574.83" font-family="Helvetica" font-size="10.00" fill="#ffffff">utils.</text>
<text text-anchor="middle" x="301.89" y="-563.83" font-family="Helvetica" font-size="10.00" fill="#ffffff">util</text>
</g>
<!-- mejiro_utils_util&#45;&gt;mejiro_engines_lenstronomy_engine -->
<g id="edge40" class="edge">
<title>mejiro_utils_util&#45;&gt;mejiro_engines_lenstronomy_engine</title><style>.edge>path:hover{stroke-width:8}</style>
<path fill="none" stroke="black" d="M339.89,-482.35C350.7,-457.85 371.43,-436.66 390.86,-420.82"/>
<polygon fill="#f31616" stroke="black" points="393.1,-423.51 398.79,-414.58 388.77,-418.01 393.1,-423.51"/>
</g>
<!-- mejiro_utils_util&#45;&gt;mejiro_exposure -->
<g id="edge41" class="edge">
<title>mejiro_utils_util&#45;&gt;mejiro_exposure</title><style>.edge>path:hover{stroke-width:8}</style>
<path fill="none" stroke="black" d="M312.54,-549.62C319.98,-531.19 330.27,-506.17 339.89,-484.35"/>
<path fill="none" stroke="black" d="M339.89,-482.35C361.89,-432.47 318.95,-403.04 352.89,-360.37 407.05,-292.29 503.03,-376.09 537.89,-296.38"/>
<path fill="none" stroke="black" d="M537.89,-294.38C570.19,-218.3 530.22,-190.71 537.89,-108.42"/>
<path fill="none" stroke="black" d="M537.89,-106.42C540.95,-71.24 642.29,-44.34 704.07,-31.17"/>
<polygon fill="#f31616" stroke="black" points="704.92,-34.57 714,-29.1 703.49,-27.71 704.92,-34.57"/>
</g>
<!-- mejiro_utils_util&#45;&gt;mejiro_instruments_roman -->
<g id="edge42" class="edge">
<title>mejiro_utils_util&#45;&gt;mejiro_instruments_roman</title><style>.edge>path:hover{stroke-width:8}</style>
<path fill="none" stroke="black" d="M331.9,-565.95C362.6,-554.74 411.15,-535.37 449.89,-512.34 485.81,-490.99 490.28,-479.18 523.89,-454.36 540.53,-442.07 559.21,-428.95 575.38,-417.81"/>
<polygon fill="#f31616" stroke="black" points="577.8,-420.39 584.07,-411.84 573.84,-414.62 577.8,-420.39"/>
</g>
<!-- mejiro_utils_util&#45;&gt;mejiro_lenses_lens_util -->
<g id="edge43" class="edge">
<title>mejiro_utils_util&#45;&gt;mejiro_lenses_lens_util</title><style>.edge>path:hover{stroke-width:8}</style>
<path fill="none" stroke="black" d="M187.89,-482.35C166.64,-446.31 227.31,-427.42 207.89,-390.37"/>
<path fill="none" stroke="black" d="M207.89,-388.37C197.1,-367.78 182.57,-346.27 170.19,-329.23"/>
<polygon fill="#f31616" stroke="black" points="172.69,-326.73 163.94,-320.76 167.06,-330.88 172.69,-326.73"/>
</g>
<!-- mejiro_utils_util&#45;&gt;mejiro_lenses_strong_lens -->
<g id="edge44" class="edge">
<title>mejiro_utils_util&#45;&gt;mejiro_lenses_strong_lens</title><style>.edge>path:hover{stroke-width:8}</style>
<path fill="none" stroke="black" d="M274.29,-561.87C247.68,-546.4 208.49,-519.29 187.89,-484.35"/>
<path fill="none" stroke="black" d="M187.89,-482.35C176.79,-463.51 164.29,-442.59 154.01,-425.46"/>
<polygon fill="#f31616" stroke="black" points="157.01,-423.65 148.86,-416.88 151.01,-427.26 157.01,-423.65"/>
</g>
<!-- mejiro_utils_util&#45;&gt;mejiro_plots_plot_util -->
<g id="edge45" class="edge">
<title>mejiro_utils_util&#45;&gt;mejiro_plots_plot_util</title><style>.edge>path:hover{stroke-width:8}</style>
<path fill="none" stroke="black" d="M297.25,-548.49C291.93,-516.58 283.18,-464.11 277.24,-428.43"/>
<polygon fill="#f31616" stroke="black" points="280.66,-427.69 275.56,-418.4 273.76,-428.84 280.66,-427.69"/>
</g>
</g>
</svg>
