<?xml version="1.0" encoding="UTF-8" standalone="no"?>
<!DOCTYPE svg PUBLIC "-//W3C//DTD SVG 1.1//EN"
 "http://www.w3.org/Graphics/SVG/1.1/DTD/svg11.dtd">
<!-- Generated by graphviz version 2.44.0 (0)
 -->
<!-- Title: G Pages: 1 -->
<svg width="1687pt" height="614pt"
 viewBox="0.00 0.00 1687.34 614.32" xmlns="http://www.w3.org/2000/svg" xmlns:xlink="http://www.w3.org/1999/xlink">
<g id="graph0" class="graph" transform="scale(1 1) rotate(0) translate(4 610.32)">
<title>G</title><style>.edge>path:hover{stroke-width:8}</style>
<polygon fill="white" stroke="transparent" points="-4,4 -4,-610.32 1683.34,-610.32 1683.34,4 -4,4"/>
<!-- mejiro_analysis -->
<g id="node1" class="node">
<title>mejiro_analysis</title><style>.edge>path:hover{stroke-width:8}</style>
<ellipse fill="#b65353" stroke="black" cx="36.77" cy="-577.33" rx="36.54" ry="21.43"/>
<text text-anchor="middle" x="36.77" y="-580.33" font-family="Helvetica" font-size="10.00" fill="#ffffff">mejiro.</text>
<text text-anchor="middle" x="36.77" y="-569.33" font-family="Helvetica" font-size="10.00" fill="#ffffff">analysis</text>
</g>
<!-- mejiro_lenses_strong_lens -->
<g id="node19" class="node">
<title>mejiro_lenses_strong_lens</title><style>.edge>path:hover{stroke-width:8}</style>
<ellipse fill="#964040" stroke="black" cx="130.77" cy="-389.37" rx="47.25" ry="28.98"/>
<text text-anchor="middle" x="130.77" y="-397.87" font-family="Helvetica" font-size="10.00" fill="#ffffff">mejiro.</text>
<text text-anchor="middle" x="130.77" y="-386.87" font-family="Helvetica" font-size="10.00" fill="#ffffff">lenses.</text>
<text text-anchor="middle" x="130.77" y="-375.87" font-family="Helvetica" font-size="10.00" fill="#ffffff">strong_lens</text>
</g>
<!-- mejiro_analysis&#45;&gt;mejiro_lenses_strong_lens -->
<g id="edge1" class="edge">
<title>mejiro_analysis&#45;&gt;mejiro_lenses_strong_lens</title><style>.edge>path:hover{stroke-width:8}</style>
<path fill="none" stroke="black" d="M58.12,-560.02C84.42,-539.23 126.2,-503.68 130.77,-484.35"/>
<path fill="none" stroke="black" d="M130.77,-482.35C134.83,-465.14 135.38,-445.6 134.69,-428.98"/>
<polygon fill="#b65353" stroke="black" points="138.16,-428.31 134.09,-418.53 131.17,-428.71 138.16,-428.31"/>
</g>
<!-- mejiro_analysis_lensing -->
<g id="node2" class="node">
<title>mejiro_analysis_lensing</title><style>.edge>path:hover{stroke-width:8}</style>
<ellipse fill="#995252" stroke="black" cx="578.77" cy="-389.37" rx="38.78" ry="28.98"/>
<text text-anchor="middle" x="578.77" y="-397.87" font-family="Helvetica" font-size="10.00" fill="#ffffff">mejiro.</text>
<text text-anchor="middle" x="578.77" y="-386.87" font-family="Helvetica" font-size="10.00" fill="#ffffff">analysis.</text>
<text text-anchor="middle" x="578.77" y="-375.87" font-family="Helvetica" font-size="10.00" fill="#ffffff">lensing</text>
</g>
<!-- mejiro_analysis_regions -->
<g id="node3" class="node">
<title>mejiro_analysis_regions</title><style>.edge>path:hover{stroke-width:8}</style>
<ellipse fill="#b65353" stroke="black" cx="130.77" cy="-577.33" rx="38.78" ry="28.98"/>
<text text-anchor="middle" x="130.77" y="-585.83" font-family="Helvetica" font-size="10.00" fill="#ffffff">mejiro.</text>
<text text-anchor="middle" x="130.77" y="-574.83" font-family="Helvetica" font-size="10.00" fill="#ffffff">analysis.</text>
<text text-anchor="middle" x="130.77" y="-563.83" font-family="Helvetica" font-size="10.00" fill="#ffffff">regions</text>
</g>
<!-- mejiro_analysis_regions&#45;&gt;mejiro_lenses_strong_lens -->
<g id="edge2" class="edge">
<title>mejiro_analysis_regions&#45;&gt;mejiro_lenses_strong_lens</title><style>.edge>path:hover{stroke-width:8}</style>
<path fill="none" stroke="black" d="M127.45,-548.17C126.09,-529.76 125.82,-505.33 130.77,-484.35"/>
</g>
<!-- mejiro_engines -->
<g id="node4" class="node">
<title>mejiro_engines</title><style>.edge>path:hover{stroke-width:8}</style>
<ellipse fill="#f31616" stroke="black" cx="790.77" cy="-107.42" rx="47.19" ry="18"/>
<text text-anchor="middle" x="790.77" y="-104.92" font-family="Helvetica" font-size="10.00" fill="#ffffff">mejiro.engines</text>
</g>
<!-- mejiro_exposure -->
<g id="node11" class="node">
<title>mejiro_exposure</title><style>.edge>path:hover{stroke-width:8}</style>
<ellipse fill="#854747" stroke="black" cx="715.77" cy="-21.21" rx="39.7" ry="21.43"/>
<text text-anchor="middle" x="715.77" y="-24.21" font-family="Helvetica" font-size="10.00" fill="#ffffff">mejiro.</text>
<text text-anchor="middle" x="715.77" y="-13.21" font-family="Helvetica" font-size="10.00" fill="#ffffff">exposure</text>
</g>
<!-- mejiro_engines&#45;&gt;mejiro_exposure -->
<g id="edge3" class="edge">
<title>mejiro_engines&#45;&gt;mejiro_exposure</title><style>.edge>path:hover{stroke-width:8}</style>
<path fill="none" stroke="black" d="M776.31,-90.18C765.78,-78.36 751.28,-62.09 739.12,-48.43"/>
<polygon fill="#f31616" stroke="black" points="741.54,-45.88 732.28,-40.74 736.31,-50.54 741.54,-45.88"/>
</g>
<!-- mejiro_engines_engine -->
<g id="node5" class="node">
<title>mejiro_engines_engine</title><style>.edge>path:hover{stroke-width:8}</style>
<ellipse fill="#e72222" stroke="black" cx="1246.77" cy="-483.35" rx="37.45" ry="28.98"/>
<text text-anchor="middle" x="1246.77" y="-491.85" font-family="Helvetica" font-size="10.00" fill="#ffffff">mejiro.</text>
<text text-anchor="middle" x="1246.77" y="-480.85" font-family="Helvetica" font-size="10.00" fill="#ffffff">engines.</text>
<text text-anchor="middle" x="1246.77" y="-469.85" font-family="Helvetica" font-size="10.00" fill="#ffffff">engine</text>
</g>
<!-- mejiro_engines_galsim_engine -->
<g id="node6" class="node">
<title>mejiro_engines_galsim_engine</title><style>.edge>path:hover{stroke-width:8}</style>
<ellipse fill="#813737" stroke="black" cx="1198.77" cy="-201.4" rx="55.72" ry="28.98"/>
<text text-anchor="middle" x="1198.77" y="-209.9" font-family="Helvetica" font-size="10.00" fill="#ffffff">mejiro.</text>
<text text-anchor="middle" x="1198.77" y="-198.9" font-family="Helvetica" font-size="10.00" fill="#ffffff">engines.</text>
<text text-anchor="middle" x="1198.77" y="-187.9" font-family="Helvetica" font-size="10.00" fill="#ffffff">galsim_engine</text>
</g>
<!-- mejiro_engines_engine&#45;&gt;mejiro_engines_galsim_engine -->
<g id="edge4" class="edge">
<title>mejiro_engines_engine&#45;&gt;mejiro_engines_galsim_engine</title><style>.edge>path:hover{stroke-width:8}</style>
<path fill="none" stroke="black" d="M1198.77,-294.38C1193.32,-277.24 1192.66,-257.38 1193.64,-240.51"/>
<polygon fill="#e72222" stroke="black" points="1197.14,-240.69 1194.43,-230.44 1190.16,-240.14 1197.14,-240.69"/>
</g>
<!-- mejiro_engines_lenstronomy_engine -->
<g id="node7" class="node">
<title>mejiro_engines_lenstronomy_engine</title><style>.edge>path:hover{stroke-width:8}</style>
<ellipse fill="#964040" stroke="black" cx="708.77" cy="-389.37" rx="73.58" ry="28.98"/>
<text text-anchor="middle" x="708.77" y="-397.87" font-family="Helvetica" font-size="10.00" fill="#ffffff">mejiro.</text>
<text text-anchor="middle" x="708.77" y="-386.87" font-family="Helvetica" font-size="10.00" fill="#ffffff">engines.</text>
<text text-anchor="middle" x="708.77" y="-375.87" font-family="Helvetica" font-size="10.00" fill="#ffffff">lenstronomy_engine</text>
</g>
<!-- mejiro_engines_engine&#45;&gt;mejiro_engines_lenstronomy_engine -->
<g id="edge5" class="edge">
<title>mejiro_engines_engine&#45;&gt;mejiro_engines_lenstronomy_engine</title><style>.edge>path:hover{stroke-width:8}</style>
<path fill="none" stroke="black" d="M1211.4,-473.4C1186.25,-467.31 1151.61,-459.45 1120.77,-454.36 975.64,-430.37 935.41,-450.05 791.77,-418.36 784.83,-416.83 777.65,-414.92 770.56,-412.83"/>
<polygon fill="#e72222" stroke="black" points="771.56,-409.47 760.97,-409.88 769.5,-416.16 771.56,-409.47"/>
</g>
<!-- mejiro_engines_pandeia_engine -->
<g id="node8" class="node">
<title>mejiro_engines_pandeia_engine</title><style>.edge>path:hover{stroke-width:8}</style>
<ellipse fill="#8b4b4b" stroke="black" cx="1065.77" cy="-201.4" rx="59.29" ry="28.98"/>
<text text-anchor="middle" x="1065.77" y="-209.9" font-family="Helvetica" font-size="10.00" fill="#ffffff">mejiro.</text>
<text text-anchor="middle" x="1065.77" y="-198.9" font-family="Helvetica" font-size="10.00" fill="#ffffff">engines.</text>
<text text-anchor="middle" x="1065.77" y="-187.9" font-family="Helvetica" font-size="10.00" fill="#ffffff">pandeia_engine</text>
</g>
<!-- mejiro_engines_engine&#45;&gt;mejiro_engines_pandeia_engine -->
<g id="edge6" class="edge">
<title>mejiro_engines_engine&#45;&gt;mejiro_engines_pandeia_engine</title><style>.edge>path:hover{stroke-width:8}</style>
<path fill="none" stroke="black" d="M1232.97,-456.19C1227.5,-444.84 1221.61,-431.21 1217.77,-418.36 1202.08,-365.78 1215.4,-348.67 1198.77,-296.38"/>
<path fill="none" stroke="black" d="M1198.77,-294.38C1191.16,-275.43 1149.24,-248.31 1114.46,-228.43"/>
<polygon fill="#e72222" stroke="black" points="1115.77,-225.15 1105.34,-223.28 1112.33,-231.24 1115.77,-225.15"/>
</g>
<!-- mejiro_engines_romanisim_engine -->
<g id="node9" class="node">
<title>mejiro_engines_romanisim_engine</title><style>.edge>path:hover{stroke-width:8}</style>
<ellipse fill="#8b4b4b" stroke="black" cx="1293.77" cy="-389.37" rx="67.35" ry="28.98"/>
<text text-anchor="middle" x="1293.77" y="-397.87" font-family="Helvetica" font-size="10.00" fill="#ffffff">mejiro.</text>
<text text-anchor="middle" x="1293.77" y="-386.87" font-family="Helvetica" font-size="10.00" fill="#ffffff">engines.</text>
<text text-anchor="middle" x="1293.77" y="-375.87" font-family="Helvetica" font-size="10.00" fill="#ffffff">romanisim_engine</text>
</g>
<!-- mejiro_engines_engine&#45;&gt;mejiro_engines_romanisim_engine -->
<g id="edge7" class="edge">
<title>mejiro_engines_engine&#45;&gt;mejiro_engines_romanisim_engine</title><style>.edge>path:hover{stroke-width:8}</style>
<path fill="none" stroke="black" d="M1260.11,-456.24C1264.76,-447.14 1270.06,-436.76 1275.07,-426.97"/>
<polygon fill="#e72222" stroke="black" points="1278.3,-428.33 1279.74,-417.83 1272.07,-425.14 1278.3,-428.33"/>
</g>
<!-- mejiro_engines_stpsf_engine -->
<g id="node10" class="node">
<title>mejiro_engines_stpsf_engine</title><style>.edge>path:hover{stroke-width:8}</style>
<ellipse fill="#854747" stroke="black" cx="1429.77" cy="-389.37" rx="50.82" ry="28.98"/>
<text text-anchor="middle" x="1429.77" y="-397.87" font-family="Helvetica" font-size="10.00" fill="#ffffff">mejiro.</text>
<text text-anchor="middle" x="1429.77" y="-386.87" font-family="Helvetica" font-size="10.00" fill="#ffffff">engines.</text>
<text text-anchor="middle" x="1429.77" y="-375.87" font-family="Helvetica" font-size="10.00" fill="#ffffff">stpsf_engine</text>
</g>
<!-- mejiro_engines_engine&#45;&gt;mejiro_engines_stpsf_engine -->
<g id="edge8" class="edge">
<title>mejiro_engines_engine&#45;&gt;mejiro_engines_stpsf_engine</title><style>.edge>path:hover{stroke-width:8}</style>
<path fill="none" stroke="black" d="M1277.81,-466.75C1306.71,-452.22 1350.16,-430.38 1383.21,-413.77"/>
<polygon fill="#e72222" stroke="black" points="1384.87,-416.85 1392.24,-409.23 1381.73,-410.6 1384.87,-416.85"/>
</g>
<!-- mejiro_engines_galsim_engine&#45;&gt;mejiro_exposure -->
<g id="edge9" class="edge">
<title>mejiro_engines_galsim_engine&#45;&gt;mejiro_exposure</title><style>.edge>path:hover{stroke-width:8}</style>
<path fill="none" stroke="black" d="M1158.89,-180.89C1150.74,-177.57 1142.11,-174.52 1133.77,-172.41 1047.47,-150.53 811.48,-181.59 734.77,-136.41 721.81,-128.78 724.26,-120.83 715.77,-108.42"/>
</g>
<!-- mejiro_engines_lenstronomy_engine&#45;&gt;mejiro_exposure -->
<g id="edge10" class="edge">
<title>mejiro_engines_lenstronomy_engine&#45;&gt;mejiro_exposure</title><style>.edge>path:hover{stroke-width:8}</style>
<path fill="none" stroke="black" d="M719.31,-360.34C737.7,-306.27 768.88,-186.07 715.77,-108.42"/>
<path fill="none" stroke="black" d="M715.77,-106.42C705.03,-91.03 705.06,-69.9 707.76,-52.66"/>
<polygon fill="#964040" stroke="black" points="711.26,-53 709.72,-42.51 704.39,-51.67 711.26,-53"/>
</g>
<!-- mejiro_galaxy_galaxy -->
<g id="node12" class="node">
<title>mejiro_galaxy_galaxy</title><style>.edge>path:hover{stroke-width:8}</style>
<ellipse fill="#9f5656" stroke="black" cx="1622.77" cy="-483.35" rx="56.64" ry="21.43"/>
<text text-anchor="middle" x="1622.77" y="-486.35" font-family="Helvetica" font-size="10.00" fill="#ffffff">mejiro.</text>
<text text-anchor="middle" x="1622.77" y="-475.35" font-family="Helvetica" font-size="10.00" fill="#ffffff">galaxy_galaxy</text>
</g>
<!-- mejiro_instruments -->
<g id="node13" class="node">
<title>mejiro_instruments</title><style>.edge>path:hover{stroke-width:8}</style>
<ellipse fill="#db2f2f" stroke="black" cx="848.77" cy="-389.37" rx="48.17" ry="21.43"/>
<text text-anchor="middle" x="848.77" y="-392.37" font-family="Helvetica" font-size="10.00" fill="#ffffff">mejiro.</text>
<text text-anchor="middle" x="848.77" y="-381.37" font-family="Helvetica" font-size="10.00" fill="#ffffff">instruments</text>
</g>
<!-- mejiro_instruments&#45;&gt;mejiro_engines_galsim_engine -->
<g id="edge11" class="edge">
<title>mejiro_instruments&#45;&gt;mejiro_engines_galsim_engine</title><style>.edge>path:hover{stroke-width:8}</style>
<path fill="none" stroke="black" d="M886.77,-294.38C898.46,-282.9 896.48,-274.41 910.77,-266.39 998.34,-217.29 1037.38,-258.46 1133.77,-230.39 1138.73,-228.95 1143.81,-227.22 1148.85,-225.35"/>
<polygon fill="#db2f2f" stroke="black" points="1150.39,-228.5 1158.42,-221.59 1147.83,-221.99 1150.39,-228.5"/>
</g>
<!-- mejiro_instruments&#45;&gt;mejiro_engines_pandeia_engine -->
<g id="edge12" class="edge">
<title>mejiro_instruments&#45;&gt;mejiro_engines_pandeia_engine</title><style>.edge>path:hover{stroke-width:8}</style>
<path fill="none" stroke="black" d="M852.3,-368.2C856.88,-347.62 866.79,-315.99 886.77,-296.38"/>
<path fill="none" stroke="black" d="M886.77,-294.38C898.46,-282.9 897.5,-276 910.77,-266.39 939.17,-245.82 975.17,-230.44 1005.32,-219.92"/>
<polygon fill="#db2f2f" stroke="black" points="1006.54,-223.2 1014.88,-216.68 1004.29,-216.57 1006.54,-223.2"/>
</g>
<!-- mejiro_instruments_hwo -->
<g id="node14" class="node">
<title>mejiro_instruments_hwo</title><style>.edge>path:hover{stroke-width:8}</style>
<ellipse fill="#a44646" stroke="black" cx="1120.77" cy="-389.37" rx="50.41" ry="28.98"/>
<text text-anchor="middle" x="1120.77" y="-397.87" font-family="Helvetica" font-size="10.00" fill="#ffffff">mejiro.</text>
<text text-anchor="middle" x="1120.77" y="-386.87" font-family="Helvetica" font-size="10.00" fill="#ffffff">instruments.</text>
<text text-anchor="middle" x="1120.77" y="-375.87" font-family="Helvetica" font-size="10.00" fill="#ffffff">hwo</text>
</g>
<!-- mejiro_instruments_hwo&#45;&gt;mejiro_engines_galsim_engine -->
<g id="edge13" class="edge">
<title>mejiro_instruments_hwo&#45;&gt;mejiro_engines_galsim_engine</title><style>.edge>path:hover{stroke-width:8}</style>
<path fill="none" stroke="black" d="M1132.28,-360.93C1145.76,-328.79 1168.15,-275.39 1183.18,-239.56"/>
<polygon fill="#a44646" stroke="black" points="1186.57,-240.53 1187.21,-229.95 1180.12,-237.82 1186.57,-240.53"/>
</g>
<!-- mejiro_instruments_instrument -->
<g id="node15" class="node">
<title>mejiro_instruments_instrument</title><style>.edge>path:hover{stroke-width:8}</style>
<ellipse fill="#c24747" stroke="black" cx="1061.77" cy="-483.35" rx="50.41" ry="28.98"/>
<text text-anchor="middle" x="1061.77" y="-491.85" font-family="Helvetica" font-size="10.00" fill="#ffffff">mejiro.</text>
<text text-anchor="middle" x="1061.77" y="-480.85" font-family="Helvetica" font-size="10.00" fill="#ffffff">instruments.</text>
<text text-anchor="middle" x="1061.77" y="-469.85" font-family="Helvetica" font-size="10.00" fill="#ffffff">instrument</text>
</g>
<!-- mejiro_instruments_instrument&#45;&gt;mejiro_instruments_hwo -->
<g id="edge14" class="edge">
<title>mejiro_instruments_instrument&#45;&gt;mejiro_instruments_hwo</title><style>.edge>path:hover{stroke-width:8}</style>
<path fill="none" stroke="black" d="M1078.83,-455.74C1084.89,-446.3 1091.8,-435.53 1098.24,-425.49"/>
<polygon fill="#c24747" stroke="black" points="1101.29,-427.22 1103.74,-416.91 1095.4,-423.44 1101.29,-427.22"/>
</g>
<!-- mejiro_instruments_roman -->
<g id="node16" class="node">
<title>mejiro_instruments_roman</title><style>.edge>path:hover{stroke-width:8}</style>
<ellipse fill="#993333" stroke="black" cx="1002.77" cy="-389.37" rx="50.41" ry="28.98"/>
<text text-anchor="middle" x="1002.77" y="-397.87" font-family="Helvetica" font-size="10.00" fill="#ffffff">mejiro.</text>
<text text-anchor="middle" x="1002.77" y="-386.87" font-family="Helvetica" font-size="10.00" fill="#ffffff">instruments.</text>
<text text-anchor="middle" x="1002.77" y="-375.87" font-family="Helvetica" font-size="10.00" fill="#ffffff">roman</text>
</g>
<!-- mejiro_instruments_instrument&#45;&gt;mejiro_instruments_roman -->
<g id="edge15" class="edge">
<title>mejiro_instruments_instrument&#45;&gt;mejiro_instruments_roman</title><style>.edge>path:hover{stroke-width:8}</style>
<path fill="none" stroke="black" d="M1044.7,-455.74C1038.65,-446.3 1031.74,-435.53 1025.3,-425.49"/>
<polygon fill="#c24747" stroke="black" points="1028.14,-423.44 1019.8,-416.91 1022.25,-427.22 1028.14,-423.44"/>
</g>
<!-- mejiro_instruments_roman&#45;&gt;mejiro_engines_galsim_engine -->
<g id="edge16" class="edge">
<title>mejiro_instruments_roman&#45;&gt;mejiro_engines_galsim_engine</title><style>.edge>path:hover{stroke-width:8}</style>
<path fill="none" stroke="black" d="M1073.77,-294.38C1093.23,-266.05 1124.34,-243.11 1150.65,-227.23"/>
<polygon fill="#993333" stroke="black" points="1152.52,-230.19 1159.37,-222.11 1148.97,-224.16 1152.52,-230.19"/>
</g>
<!-- mejiro_instruments_roman&#45;&gt;mejiro_engines_pandeia_engine -->
<g id="edge17" class="edge">
<title>mejiro_instruments_roman&#45;&gt;mejiro_engines_pandeia_engine</title><style>.edge>path:hover{stroke-width:8}</style>
<path fill="none" stroke="black" d="M1023.76,-362.77C1038.33,-344.63 1057.89,-319.5 1073.77,-296.38"/>
<path fill="none" stroke="black" d="M1073.77,-294.38C1084.52,-278.74 1083.61,-257.88 1079.53,-239.99"/>
<polygon fill="#993333" stroke="black" points="1082.86,-238.9 1076.91,-230.13 1076.1,-240.69 1082.86,-238.9"/>
</g>
<!-- mejiro_lenses -->
<g id="node17" class="node">
<title>mejiro_lenses</title><style>.edge>path:hover{stroke-width:8}</style>
<ellipse fill="#c24747" stroke="black" cx="550.77" cy="-295.38" rx="43.62" ry="18"/>
<text text-anchor="middle" x="550.77" y="-292.88" font-family="Helvetica" font-size="10.00" fill="#ffffff">mejiro.lenses</text>
</g>
<!-- mejiro_plots_diagnostic_plot -->
<g id="node20" class="node">
<title>mejiro_plots_diagnostic_plot</title><style>.edge>path:hover{stroke-width:8}</style>
<ellipse fill="#8b4b4b" stroke="black" cx="490.77" cy="-107.42" rx="57.97" ry="28.98"/>
<text text-anchor="middle" x="490.77" y="-115.92" font-family="Helvetica" font-size="10.00" fill="#ffffff">mejiro.</text>
<text text-anchor="middle" x="490.77" y="-104.92" font-family="Helvetica" font-size="10.00" fill="#ffffff">plots.</text>
<text text-anchor="middle" x="490.77" y="-93.92" font-family="Helvetica" font-size="10.00" fill="#ffffff">diagnostic_plot</text>
</g>
<!-- mejiro_lenses&#45;&gt;mejiro_plots_diagnostic_plot -->
<g id="edge18" class="edge">
<title>mejiro_lenses&#45;&gt;mejiro_plots_diagnostic_plot</title><style>.edge>path:hover{stroke-width:8}</style>
<path fill="none" stroke="black" d="M526.24,-280.2C500.82,-263.47 466.42,-233.94 478.77,-202.4"/>
</g>
<!-- mejiro_lenses_lens_util -->
<g id="node18" class="node">
<title>mejiro_lenses_lens_util</title><style>.edge>path:hover{stroke-width:8}</style>
<ellipse fill="#964040" stroke="black" cx="205.77" cy="-295.38" rx="37.45" ry="28.98"/>
<text text-anchor="middle" x="205.77" y="-303.88" font-family="Helvetica" font-size="10.00" fill="#ffffff">mejiro.</text>
<text text-anchor="middle" x="205.77" y="-292.88" font-family="Helvetica" font-size="10.00" fill="#ffffff">lenses.</text>
<text text-anchor="middle" x="205.77" y="-281.88" font-family="Helvetica" font-size="10.00" fill="#ffffff">lens_util</text>
</g>
<!-- mejiro_lenses_lens_util&#45;&gt;mejiro_plots_diagnostic_plot -->
<g id="edge19" class="edge">
<title>mejiro_lenses_lens_util&#45;&gt;mejiro_plots_diagnostic_plot</title><style>.edge>path:hover{stroke-width:8}</style>
<path fill="none" stroke="black" d="M242.4,-288.85C312.66,-277.26 461.04,-247.69 478.77,-202.4"/>
<path fill="none" stroke="black" d="M478.77,-200.4C485.38,-183.51 488.5,-163.68 489.92,-146.76"/>
<polygon fill="#964040" stroke="black" points="493.42,-146.87 490.59,-136.66 486.43,-146.4 493.42,-146.87"/>
</g>
<!-- mejiro_lenses_strong_lens&#45;&gt;mejiro_lenses_lens_util -->
<g id="edge20" class="edge">
<title>mejiro_lenses_strong_lens&#45;&gt;mejiro_lenses_lens_util</title><style>.edge>path:hover{stroke-width:8}</style>
<path fill="none" stroke="black" d="M151.66,-362.74C160.38,-352.05 170.6,-339.51 179.8,-328.24"/>
<polygon fill="#964040" stroke="black" points="182.67,-330.25 186.28,-320.29 177.24,-325.83 182.67,-330.25"/>
</g>
<!-- mejiro_plots_plot -->
<g id="node21" class="node">
<title>mejiro_plots_plot</title><style>.edge>path:hover{stroke-width:8}</style>
<ellipse fill="#995252" stroke="black" cx="644.77" cy="-295.38" rx="32.55" ry="28.98"/>
<text text-anchor="middle" x="644.77" y="-303.88" font-family="Helvetica" font-size="10.00" fill="#ffffff">mejiro.</text>
<text text-anchor="middle" x="644.77" y="-292.88" font-family="Helvetica" font-size="10.00" fill="#ffffff">plots.</text>
<text text-anchor="middle" x="644.77" y="-281.88" font-family="Helvetica" font-size="10.00" fill="#ffffff">plot</text>
</g>
<!-- mejiro_plots_plot_util -->
<g id="node22" class="node">
<title>mejiro_plots_plot_util</title><style>.edge>path:hover{stroke-width:8}</style>
<ellipse fill="#b03a3a" stroke="black" cx="486.77" cy="-389.37" rx="35.21" ry="28.98"/>
<text text-anchor="middle" x="486.77" y="-397.87" font-family="Helvetica" font-size="10.00" fill="#ffffff">mejiro.</text>
<text text-anchor="middle" x="486.77" y="-386.87" font-family="Helvetica" font-size="10.00" fill="#ffffff">plots.</text>
<text text-anchor="middle" x="486.77" y="-375.87" font-family="Helvetica" font-size="10.00" fill="#ffffff">plot_util</text>
</g>
<!-- mejiro_plots_plot_util&#45;&gt;mejiro_plots_diagnostic_plot -->
<g id="edge21" class="edge">
<title>mejiro_plots_plot_util&#45;&gt;mejiro_plots_diagnostic_plot</title><style>.edge>path:hover{stroke-width:8}</style>
<path fill="none" stroke="black" d="M478.92,-361.07C469.66,-323.79 457.98,-255.51 478.77,-202.4"/>
</g>
<!-- mejiro_plots_plot_util&#45;&gt;mejiro_plots_plot -->
<g id="edge22" class="edge">
<title>mejiro_plots_plot_util&#45;&gt;mejiro_plots_plot</title><style>.edge>path:hover{stroke-width:8}</style>
<path fill="none" stroke="black" d="M513.95,-370.43C519.45,-366.98 525.25,-363.48 530.77,-360.37 562.3,-342.64 572.53,-342.62 603.77,-324.37 606.05,-323.04 608.37,-321.63 610.69,-320.17"/>
<polygon fill="#b03a3a" stroke="black" points="613.06,-322.81 619.54,-314.42 609.25,-316.94 613.06,-322.81"/>
</g>
<!-- mejiro_strong_lens -->
<g id="node23" class="node">
<title>mejiro_strong_lens</title><style>.edge>path:hover{stroke-width:8}</style>
<ellipse fill="#b65353" stroke="black" cx="1622.77" cy="-577.33" rx="47.25" ry="21.43"/>
<text text-anchor="middle" x="1622.77" y="-580.33" font-family="Helvetica" font-size="10.00" fill="#ffffff">mejiro.</text>
<text text-anchor="middle" x="1622.77" y="-569.33" font-family="Helvetica" font-size="10.00" fill="#ffffff">strong_lens</text>
</g>
<!-- mejiro_strong_lens&#45;&gt;mejiro_galaxy_galaxy -->
<g id="edge23" class="edge">
<title>mejiro_strong_lens&#45;&gt;mejiro_galaxy_galaxy</title><style>.edge>path:hover{stroke-width:8}</style>
<path fill="none" stroke="black" d="M1622.77,-555.92C1622.77,-543.89 1622.77,-528.44 1622.77,-514.98"/>
<polygon fill="#b65353" stroke="black" points="1626.27,-514.71 1622.77,-504.71 1619.27,-514.71 1626.27,-514.71"/>
</g>
<!-- mejiro_synthetic_image -->
<g id="node24" class="node">
<title>mejiro_synthetic_image</title><style>.edge>path:hover{stroke-width:8}</style>
<ellipse fill="#995252" stroke="black" cx="295.77" cy="-389.37" rx="61.54" ry="21.43"/>
<text text-anchor="middle" x="295.77" y="-392.37" font-family="Helvetica" font-size="10.00" fill="#ffffff">mejiro.</text>
<text text-anchor="middle" x="295.77" y="-381.37" font-family="Helvetica" font-size="10.00" fill="#ffffff">synthetic_image</text>
</g>
<!-- mejiro_utils -->
<g id="node25" class="node">
<title>mejiro_utils</title><style>.edge>path:hover{stroke-width:8}</style>
<ellipse fill="#f91010" stroke="black" cx="552.77" cy="-577.33" rx="37.85" ry="18"/>
<text text-anchor="middle" x="552.77" y="-574.83" font-family="Helvetica" font-size="10.00" fill="#ffffff">mejiro.utils</text>
</g>
<!-- mejiro_utils&#45;&gt;mejiro_analysis_lensing -->
<g id="edge24" class="edge">
<title>mejiro_utils&#45;&gt;mejiro_analysis_lensing</title><style>.edge>path:hover{stroke-width:8}</style>
<path fill="none" stroke="black" d="M578.77,-482.35C585.18,-465.4 585.91,-445.41 584.73,-428.4"/>
<polygon fill="#f91010" stroke="black" points="588.2,-427.88 583.79,-418.25 581.23,-428.53 588.2,-427.88"/>
</g>
<!-- mejiro_utils&#45;&gt;mejiro_engines_galsim_engine -->
<g id="edge25" class="edge">
<title>mejiro_utils&#45;&gt;mejiro_engines_galsim_engine</title><style>.edge>path:hover{stroke-width:8}</style>
<path fill="none" stroke="black" d="M578.77,-482.35C586.71,-461.37 599.75,-462.19 620.77,-454.36 740.4,-409.77 797.47,-485.98 905.77,-418.36 931.9,-402.04 923.11,-383.23 943.77,-360.37 988.27,-311.15 1003.42,-301.42 1059.77,-266.39 1075.27,-256.75 1114.19,-239.02 1146.92,-224.66"/>
<polygon fill="#f91010" stroke="black" points="1148.64,-227.73 1156.4,-220.52 1145.83,-221.32 1148.64,-227.73"/>
</g>
<!-- mejiro_utils&#45;&gt;mejiro_engines_lenstronomy_engine -->
<g id="edge26" class="edge">
<title>mejiro_utils&#45;&gt;mejiro_engines_lenstronomy_engine</title><style>.edge>path:hover{stroke-width:8}</style>
<path fill="none" stroke="black" d="M578.77,-482.35C590.51,-451.31 619.81,-429.16 647.63,-414.39"/>
<polygon fill="#f91010" stroke="black" points="649.25,-417.49 656.59,-409.85 646.09,-411.25 649.25,-417.49"/>
</g>
<!-- mejiro_utils&#45;&gt;mejiro_engines_romanisim_engine -->
<g id="edge27" class="edge">
<title>mejiro_utils&#45;&gt;mejiro_engines_romanisim_engine</title><style>.edge>path:hover{stroke-width:8}</style>
<path fill="none" stroke="black" d="M572.35,-561.77C580.42,-556.56 590.14,-551.26 599.77,-548.34 747.34,-503.58 1140.31,-535.47 1292.77,-512.34 1342.65,-504.77 1377.5,-528.01 1402.77,-484.35"/>
<path fill="none" stroke="black" d="M1402.77,-482.35C1419.66,-453.16 1387.73,-429 1354.14,-412.77"/>
<polygon fill="#f91010" stroke="black" points="1355.21,-409.41 1344.66,-408.41 1352.28,-415.77 1355.21,-409.41"/>
</g>
<!-- mejiro_utils&#45;&gt;mejiro_engines_stpsf_engine -->
<g id="edge28" class="edge">
<title>mejiro_utils&#45;&gt;mejiro_engines_stpsf_engine</title><style>.edge>path:hover{stroke-width:8}</style>
<path fill="none" stroke="black" d="M1402.77,-482.35C1412.39,-465.73 1418.82,-445.41 1422.98,-428.1"/>
<polygon fill="#f91010" stroke="black" points="1426.41,-428.83 1425.18,-418.31 1419.58,-427.3 1426.41,-428.83"/>
</g>
<!-- mejiro_utils&#45;&gt;mejiro_exposure -->
<g id="edge29" class="edge">
<title>mejiro_utils&#45;&gt;mejiro_exposure</title><style>.edge>path:hover{stroke-width:8}</style>
<path fill="none" stroke="black" d="M556.7,-559.09C561.18,-540.39 569.14,-509.8 578.77,-484.35"/>
<path fill="none" stroke="black" d="M578.77,-482.35C602.41,-419.87 483.33,-471.43 442.77,-418.36 383.59,-340.93 357.2,-287.46 404.77,-202.4"/>
</g>
<!-- mejiro_utils&#45;&gt;mejiro_instruments_roman -->
<g id="edge30" class="edge">
<title>mejiro_utils&#45;&gt;mejiro_instruments_roman</title><style>.edge>path:hover{stroke-width:8}</style>
<path fill="none" stroke="black" d="M562.77,-559.93C576.4,-539.04 602.78,-503.39 634.77,-484.35"/>
</g>
<!-- mejiro_utils&#45;&gt;mejiro_lenses_lens_util -->
<g id="edge31" class="edge">
<title>mejiro_utils&#45;&gt;mejiro_lenses_lens_util</title><style>.edge>path:hover{stroke-width:8}</style>
<path fill="none" stroke="black" d="M537.62,-560.64C510.92,-532.76 454.11,-472.42 409.77,-418.36 389.42,-393.55 392.2,-379.93 366.77,-360.37 332.37,-333.93 285.62,-316.96 251.35,-307.2"/>
<polygon fill="#f91010" stroke="black" points="252.17,-303.79 241.6,-304.51 250.31,-310.54 252.17,-303.79"/>
</g>
<!-- mejiro_utils&#45;&gt;mejiro_lenses_strong_lens -->
<g id="edge32" class="edge">
<title>mejiro_utils&#45;&gt;mejiro_lenses_strong_lens</title><style>.edge>path:hover{stroke-width:8}</style>
<path fill="none" stroke="black" d="M524.39,-565.32C510.89,-560.11 494.52,-553.85 479.77,-548.34 435.91,-531.96 423.87,-530.63 380.77,-512.34 307.27,-481.15 224.42,-439.37 174.97,-413.69"/>
<polygon fill="#f91010" stroke="black" points="176.32,-410.44 165.83,-408.93 173.08,-416.65 176.32,-410.44"/>
</g>
<!-- mejiro_utils&#45;&gt;mejiro_plots_plot_util -->
<g id="edge33" class="edge">
<title>mejiro_utils&#45;&gt;mejiro_plots_plot_util</title><style>.edge>path:hover{stroke-width:8}</style>
<path fill="none" stroke="black" d="M578.77,-482.35C584.93,-466.05 550.26,-435.99 521.73,-414.68"/>
<polygon fill="#f91010" stroke="black" points="523.64,-411.74 513.5,-408.64 519.49,-417.38 523.64,-411.74"/>
</g>
<!-- mejiro_utils&#45;&gt;mejiro_synthetic_image -->
<g id="edge34" class="edge">
<title>mejiro_utils&#45;&gt;mejiro_synthetic_image</title><style>.edge>path:hover{stroke-width:8}</style>
<path fill="none" stroke="black" d="M532.08,-561.97C513.58,-549.08 485.76,-529.59 461.77,-512.34 415.32,-478.95 362.12,-439.67 328.73,-414.89"/>
<polygon fill="#f91010" stroke="black" points="330.8,-412.07 320.68,-408.92 326.62,-417.69 330.8,-412.07"/>
</g>
<!-- mejiro_utils_lenstronomy_util -->
<g id="node26" class="node">
<title>mejiro_utils_lenstronomy_util</title><style>.edge>path:hover{stroke-width:8}</style>
<ellipse fill="#b65353" stroke="black" cx="1494.77" cy="-577.33" rx="62.45" ry="28.98"/>
<text text-anchor="middle" x="1494.77" y="-585.83" font-family="Helvetica" font-size="10.00" fill="#ffffff">mejiro.</text>
<text text-anchor="middle" x="1494.77" y="-574.83" font-family="Helvetica" font-size="10.00" fill="#ffffff">utils.</text>
<text text-anchor="middle" x="1494.77" y="-563.83" font-family="Helvetica" font-size="10.00" fill="#ffffff">lenstronomy_util</text>
</g>
<!-- mejiro_utils_lenstronomy_util&#45;&gt;mejiro_engines_stpsf_engine -->
<g id="edge35" class="edge">
<title>mejiro_utils_lenstronomy_util&#45;&gt;mejiro_engines_stpsf_engine</title><style>.edge>path:hover{stroke-width:8}</style>
<path fill="none" stroke="black" d="M1492.28,-548.36C1489.33,-523.07 1483.16,-485.2 1470.77,-454.36 1466.71,-444.24 1461,-434 1455.13,-424.75"/>
<polygon fill="#b65353" stroke="black" points="1457.93,-422.65 1449.5,-416.23 1452.09,-426.51 1457.93,-422.65"/>
</g>
<!-- mejiro_utils_roman_util -->
<g id="node27" class="node">
<title>mejiro_utils_roman_util</title><style>.edge>path:hover{stroke-width:8}</style>
<ellipse fill="#db2f2f" stroke="black" cx="652.77" cy="-577.33" rx="43.68" ry="28.98"/>
<text text-anchor="middle" x="652.77" y="-585.83" font-family="Helvetica" font-size="10.00" fill="#ffffff">mejiro.</text>
<text text-anchor="middle" x="652.77" y="-574.83" font-family="Helvetica" font-size="10.00" fill="#ffffff">utils.</text>
<text text-anchor="middle" x="652.77" y="-563.83" font-family="Helvetica" font-size="10.00" fill="#ffffff">roman_util</text>
</g>
<!-- mejiro_utils_roman_util&#45;&gt;mejiro_engines_galsim_engine -->
<g id="edge36" class="edge">
<title>mejiro_utils_roman_util&#45;&gt;mejiro_engines_galsim_engine</title><style>.edge>path:hover{stroke-width:8}</style>
<path fill="none" stroke="black" d="M1456.77,-482.35C1483.68,-433.05 1518.49,-408.64 1489.77,-360.37 1440.18,-277.03 1329.58,-234.93 1259.91,-215.91"/>
<polygon fill="#db2f2f" stroke="black" points="1260.5,-212.44 1249.94,-213.27 1258.71,-219.21 1260.5,-212.44"/>
</g>
<!-- mejiro_utils_roman_util&#45;&gt;mejiro_engines_romanisim_engine -->
<g id="edge37" class="edge">
<title>mejiro_utils_roman_util&#45;&gt;mejiro_engines_romanisim_engine</title><style>.edge>path:hover{stroke-width:8}</style>
<path fill="none" stroke="black" d="M696.9,-575.64C838.95,-572.95 1282.84,-560.78 1416.77,-512.34 1437.17,-504.96 1446.37,-503.39 1456.77,-484.35"/>
<path fill="none" stroke="black" d="M1456.77,-482.35C1462.96,-471 1398.5,-438.23 1348.81,-415.05"/>
<polygon fill="#db2f2f" stroke="black" points="1350.27,-411.87 1339.73,-410.84 1347.33,-418.22 1350.27,-411.87"/>
</g>
<!-- mejiro_utils_roman_util&#45;&gt;mejiro_engines_stpsf_engine -->
<g id="edge38" class="edge">
<title>mejiro_utils_roman_util&#45;&gt;mejiro_engines_stpsf_engine</title><style>.edge>path:hover{stroke-width:8}</style>
<path fill="none" stroke="black" d="M1456.77,-482.35C1466.41,-464.68 1460.92,-443.18 1452.44,-425.41"/>
<polygon fill="#db2f2f" stroke="black" points="1455.52,-423.75 1447.8,-416.5 1449.31,-426.99 1455.52,-423.75"/>
</g>
<!-- mejiro_utils_roman_util&#45;&gt;mejiro_instruments_roman -->
<g id="edge39" class="edge">
<title>mejiro_utils_roman_util&#45;&gt;mejiro_instruments_roman</title><style>.edge>path:hover{stroke-width:8}</style>
<path fill="none" stroke="black" d="M636.22,-550.27C624.13,-527.85 613.24,-497.17 634.77,-484.35"/>
</g>
<!-- mejiro_utils_util -->
<g id="node28" class="node">
<title>mejiro_utils_util</title><style>.edge>path:hover{stroke-width:8}</style>
<ellipse fill="#f91010" stroke="black" cx="437.77" cy="-577.33" rx="32.55" ry="28.98"/>
<text text-anchor="middle" x="437.77" y="-585.83" font-family="Helvetica" font-size="10.00" fill="#ffffff">mejiro.</text>
<text text-anchor="middle" x="437.77" y="-574.83" font-family="Helvetica" font-size="10.00" fill="#ffffff">utils.</text>
<text text-anchor="middle" x="437.77" y="-563.83" font-family="Helvetica" font-size="10.00" fill="#ffffff">util</text>
</g>
<!-- mejiro_utils_util&#45;&gt;mejiro_analysis_lensing -->
<g id="edge40" class="edge">
<title>mejiro_utils_util&#45;&gt;mejiro_analysis_lensing</title><style>.edge>path:hover{stroke-width:8}</style>
<path fill="none" stroke="black" d="M451.29,-550.88C465.37,-525.37 488.82,-485.52 513.77,-454.36 523.66,-442 535.74,-429.54 546.78,-418.94"/>
<polygon fill="#f91010" stroke="black" points="549.35,-421.33 554.22,-411.92 544.55,-416.24 549.35,-421.33"/>
</g>
<!-- mejiro_utils_util&#45;&gt;mejiro_engines_lenstronomy_engine -->
<g id="edge41" class="edge">
<title>mejiro_utils_util&#45;&gt;mejiro_engines_lenstronomy_engine</title><style>.edge>path:hover{stroke-width:8}</style>
<path fill="none" stroke="black" d="M460.52,-556.55C474.63,-544.1 493.02,-527.56 508.77,-512.34 534.54,-487.45 535.41,-474.9 564.77,-454.36 589.13,-437.32 618.75,-423.21 644.78,-412.62"/>
<polygon fill="#f91010" stroke="black" points="646.19,-415.83 654.19,-408.88 643.6,-409.32 646.19,-415.83"/>
</g>
<!-- mejiro_utils_util&#45;&gt;mejiro_exposure -->
<g id="edge42" class="edge">
<title>mejiro_utils_util&#45;&gt;mejiro_exposure</title><style>.edge>path:hover{stroke-width:8}</style>
<path fill="none" stroke="black" d="M405.5,-571.95C356.03,-563.59 261.36,-540.88 205.77,-484.35"/>
<path fill="none" stroke="black" d="M205.77,-482.35C160.34,-436.15 109.09,-473.32 74.77,-418.36 61.12,-396.5 65.51,-384.42 74.77,-360.37 95.01,-307.82 111.62,-295.61 159.77,-266.39 255.98,-208 348.41,-299.81 404.77,-202.4"/>
<path fill="none" stroke="black" d="M404.77,-200.4C431.3,-152.38 385.67,-117.91 423.77,-78.43 456.59,-44.41 591.89,-30.29 666.25,-25.02"/>
<polygon fill="#f91010" stroke="black" points="666.58,-28.5 676.32,-24.33 666.1,-21.52 666.58,-28.5"/>
</g>
<!-- mejiro_utils_util&#45;&gt;mejiro_instruments_roman -->
<g id="edge43" class="edge">
<title>mejiro_utils_util&#45;&gt;mejiro_instruments_roman</title><style>.edge>path:hover{stroke-width:8}</style>
<path fill="none" stroke="black" d="M466.94,-564.33C511.43,-546.02 591.29,-513.13 592.77,-512.34 612.57,-501.79 615.49,-495.82 634.77,-484.35"/>
<path fill="none" stroke="black" d="M634.77,-482.35C753.41,-411.72 807.27,-460.46 938.77,-418.36 944.11,-416.65 949.61,-414.64 955.04,-412.5"/>
<polygon fill="#f91010" stroke="black" points="956.76,-415.58 964.68,-408.54 954.1,-409.1 956.76,-415.58"/>
</g>
<!-- mejiro_utils_util&#45;&gt;mejiro_lenses_lens_util -->
<g id="edge44" class="edge">
<title>mejiro_utils_util&#45;&gt;mejiro_lenses_lens_util</title><style>.edge>path:hover{stroke-width:8}</style>
<path fill="none" stroke="black" d="M205.77,-482.35C186.23,-462.01 193.36,-382.84 199.86,-334.6"/>
<polygon fill="#f91010" stroke="black" points="203.35,-334.9 201.27,-324.51 196.42,-333.93 203.35,-334.9"/>
</g>
<!-- mejiro_utils_util&#45;&gt;mejiro_lenses_strong_lens -->
<g id="edge45" class="edge">
<title>mejiro_utils_util&#45;&gt;mejiro_lenses_strong_lens</title><style>.edge>path:hover{stroke-width:8}</style>
<path fill="none" stroke="black" d="M205.77,-482.35C188.35,-464.22 170.5,-442.47 156.58,-424.67"/>
<polygon fill="#f91010" stroke="black" points="158.97,-422.05 150.08,-416.29 153.44,-426.34 158.97,-422.05"/>
</g>
<!-- mejiro_utils_util&#45;&gt;mejiro_plots_plot_util -->
<g id="edge46" class="edge">
<title>mejiro_utils_util&#45;&gt;mejiro_plots_plot_util</title><style>.edge>path:hover{stroke-width:8}</style>
<path fill="none" stroke="black" d="M427.42,-549.61C419.22,-524.18 411.08,-485.32 423.77,-454.36 429.82,-439.59 441.11,-426.4 452.47,-415.89"/>
<polygon fill="#f91010" stroke="black" points="455.07,-418.27 460.29,-409.05 450.46,-413 455.07,-418.27"/>
</g>
<!-- mejiro_utils_util&#45;&gt;mejiro_synthetic_image -->
<g id="edge47" class="edge">
<title>mejiro_utils_util&#45;&gt;mejiro_synthetic_image</title><style>.edge>path:hover{stroke-width:8}</style>
<path fill="none" stroke="black" d="M205.77,-482.35C182.35,-457.98 218.04,-430.29 251.15,-411.71"/>
<polygon fill="#f91010" stroke="black" points="253.24,-414.56 260.38,-406.73 249.91,-408.41 253.24,-414.56"/>
</g>
</g>
</svg>
